<?xml version="1.0" encoding="utf-8"?>
<!-- Generator: Adobe Illustrator 18.1.1, SVG Export Plug-In . SVG Version: 6.00 Build 0)  -->
<svg version="1.1" id="Layer_1" xmlns="http://www.w3.org/2000/svg" xmlns:xlink="http://www.w3.org/1999/xlink" x="0px" y="0px"
	 viewBox="0 0 433 150" enable-background="new 0 0 433 150" xml:space="preserve">
<polyline fill-rule="evenodd" clip-rule="evenodd" fill="#FFFFFF" points="11.1,149.9 9.3,0 428,0 428.1,149.9 "/>
<g>
	<g>
		<g>
			<path fill-rule="evenodd" clip-rule="evenodd" fill="#005826" d="M0.6,148.1 M433.3,143.7"/>
			<path fill-rule="evenodd" clip-rule="evenodd" fill="#005826" d="M390.3,108.3c0.2-0.4,0-0.6-0.3-0.8c0,0.2-0.1,0.3-0.2,0.2
				C389.7,108.3,389.9,108,390.3,108.3z"/>
			<path fill-rule="evenodd" clip-rule="evenodd" fill="#005826" d="M391.3,104c0.1-0.2,0.1-0.3,0.2-0.5c-0.3-0.3-0.5,0-0.8,0.1
				C390.6,104.2,391.2,103.8,391.3,104z"/>
			<path fill-rule="evenodd" clip-rule="evenodd" fill="#005826" d="M84.6,105c-0.3-0.3-0.6-0.3-0.7,0.2
				C84.2,105.5,84.3,105.7,84.6,105z"/>
			<path fill-rule="evenodd" clip-rule="evenodd" fill="#005826" d="M82.9,106.1c-0.5-0.3-0.9-0.5-1.1,0.3
				C82.3,106.7,82.7,106.8,82.9,106.1z"/>
			<path fill-rule="evenodd" clip-rule="evenodd" fill="#005826" d="M80.4,105.9c0-0.6-0.5-0.2-0.7-0.2
				C79.6,106.2,80.3,106,80.4,105.9z"/>
			<path fill-rule="evenodd" clip-rule="evenodd" fill="#005826" d="M83.8,97c-0.7-0.4-1.2-0.3-1.8-0.4C82.3,97.5,83.3,97.1,83.8,97
				z"/>
			<path fill-rule="evenodd" clip-rule="evenodd" fill="#005826" d="M79.8,103.8c0.2-0.7-1.1-1.1-1.2-0.4
				C78.7,103.8,79.4,103.6,79.8,103.8z"/>
			<path fill-rule="evenodd" clip-rule="evenodd" fill="#005826" d="M82.6,95.3c0-0.1,0.1-0.2,0.1-0.3c-0.1,0-0.2-0.1-0.2-0.2
				c0,0.1-0.1,0.2-0.1,0.3C82.4,95.2,82.5,95.3,82.6,95.3z"/>
			<path fill-rule="evenodd" clip-rule="evenodd" fill="#005826" d="M78.1,103.1c-0.3-0.1-0.4,0.2-0.4,0.6
				C78,103.7,78.2,103.4,78.1,103.1z"/>
			<path fill-rule="evenodd" clip-rule="evenodd" fill="#005826" d="M44.1,121c0.1-0.7-0.8-0.9-1-0.2
				C43.4,121.3,43.7,121.1,44.1,121z"/>
			<path fill-rule="evenodd" clip-rule="evenodd" fill="#005826" d="M40.2,116.4c0.1-0.3-0.1-0.5-0.4-0.6c-0.1,0.2-0.1,0.3-0.2,0.5
				C39.9,116.5,40,116.4,40.2,116.4z"/>
			<path fill-rule="evenodd" clip-rule="evenodd" fill="#005826" d="M17,133.9c0.3-0.5-0.4-0.6-0.6-0.5
				C16.3,133.7,16.8,133.7,17,133.9z"/>
		</g>
		<g>
			<g>
				<polygon fill-rule="evenodd" clip-rule="evenodd" fill="#398733" points="59.9,69.7 60.6,70.5 61.4,69.8 63.6,134.1 58.3,134.1 
									"/>
				<g>
					<path fill-rule="evenodd" clip-rule="evenodd" fill="#8BC53F" d="M60,45.5c-5.1,5.4-4.6,7.7,0.3,12.3
						C65,52.9,65.4,50.6,60,45.5z"/>
					<path fill-rule="evenodd" clip-rule="evenodd" fill="#006D2D" d="M60.6,59.8l-0.1-4.4l2.5-2.6c0.1-0.1-0.1-0.3-0.2-0.2L60.5,55
						l-0.1-2.3l2.3-2.5c0.1-0.1-0.1-0.3-0.2-0.2l-2.2,2.3L60.3,50l1.5-1.6c0.1-0.1-0.1-0.3-0.2-0.2l-1.4,1.4l-0.1-1.9
						c0-0.3-0.4-0.3-0.4,0l0.1,2l-1.5-1.4c-0.1-0.1-0.3,0.1-0.2,0.2l1.7,1.6l0.1,2.3l-2.3-2.2c-0.1-0.1-0.3,0.1-0.2,0.2l2.5,2.4
						l0.1,2.3l-2.3-2.3c-0.1-0.1-0.3,0.1-0.2,0.2l2.5,2.5l0.1,4.5C60.2,60.1,60.6,60.1,60.6,59.8z"/>
				</g>
				<g>
					<path fill-rule="evenodd" clip-rule="evenodd" fill="#8BC53F" d="M48,67.7c7.3,1.7,8.9,0.1,10.5-6.5C52,59.7,49.8,60.4,48,67.7
						z"/>
					<path fill-rule="evenodd" clip-rule="evenodd" fill="#006D2D" d="M60.1,60l-3.8,2.3l-3.5-0.9c-0.2,0-0.2,0.2-0.1,0.3l3.2,0.8
						l-2,1.2l-3.3-0.8c-0.2,0-0.2,0.2-0.1,0.3l3.1,0.7l-2,1.2l-2.2-0.5c-0.2,0-0.2,0.2-0.1,0.3l1.9,0.5l-1.6,1
						c-0.2,0.1,0,0.5,0.2,0.4l1.7-1l-0.5,2c0,0.2,0.2,0.2,0.3,0.1l0.5-2.2l2-1.2l-0.7,3.1c0,0.2,0.2,0.2,0.3,0.1l0.8-3.4l1.9-1.2
						l-0.8,3.2c0,0.2,0.2,0.2,0.3,0.1l0.9-3.5l3.8-2.3C60.6,60.2,60.4,59.8,60.1,60z"/>
				</g>
				<g>
					<path fill-rule="evenodd" clip-rule="evenodd" fill="#8BC53F" d="M73.2,66.9c-2.1-7.2-4.4-7.8-10.9-5.9
						C64.3,67.5,66.1,69.1,73.2,66.9z"/>
					<path fill-rule="evenodd" clip-rule="evenodd" fill="#006D2D" d="M60.5,60.3l3.9,2.1l1,3.5c0,0.2,0.3,0.1,0.3-0.1l-0.9-3.2
						l2.1,1.1l1,3.3c0,0.2,0.3,0.1,0.3-0.1l-0.9-3l2.1,1.1l0.6,2.2c0,0.2,0.3,0.1,0.3-0.1l-0.6-1.9l1.7,0.9c0.2,0.1,0.4-0.2,0.2-0.4
						l-1.8-0.9l1.9-0.6c0.2,0,0.1-0.3-0.1-0.3l-2.2,0.7l-2-1.1l3.1-0.9c0.2,0,0.1-0.3-0.1-0.3l-3.3,1l-2-1.1l3.2-0.9
						c0.2,0,0.1-0.3-0.1-0.3l-3.4,0.9l-3.9-2.1C60.5,59.8,60.3,60.2,60.5,60.3z"/>
				</g>
				<g>
					<path fill-rule="evenodd" clip-rule="evenodd" fill="#8BC53F" d="M69.1,54.7c-5.1-1.2-6.3-0.1-7.4,4.6
						C66.3,60.4,67.9,59.8,69.1,54.7z"/>
					<path fill-rule="evenodd" clip-rule="evenodd" fill="#006D2D" d="M60.5,60.2l2.7-1.6l2.5,0.6c0.1,0,0.2-0.1,0-0.2l-2.3-0.6
						l1.4-0.9l2.3,0.6c0.1,0,0.2-0.2,0-0.2l-2.2-0.5l1.4-0.9l1.6,0.4c0.1,0,0.2-0.2,0-0.2l-1.4-0.3l1.2-0.7c0.2-0.1,0-0.4-0.2-0.3
						l-1.2,0.7l0.3-1.4c0-0.1-0.2-0.2-0.2,0l-0.4,1.6l-1.4,0.9l0.5-2.2c0-0.1-0.2-0.2-0.2,0l-0.6,2.4l-1.4,0.8l0.6-2.3
						c0-0.1-0.1-0.2-0.2,0l-0.6,2.4l-2.7,1.7C60.2,60,60.4,60.3,60.5,60.2z"/>
				</g>
				<g>
					<path fill-rule="evenodd" clip-rule="evenodd" fill="#8BC53F" d="M51.4,55.2c1.5,5.1,3.1,5.5,7.7,4.2
						C57.7,54.8,56.4,53.7,51.4,55.2z"/>
					<path fill-rule="evenodd" clip-rule="evenodd" fill="#006D2D" d="M60.4,59.9l-2.8-1.5L57,55.9c0-0.1-0.2-0.1-0.2,0l0.6,2.3
						l-1.5-0.8l-0.7-2.3c0-0.1-0.2-0.1-0.2,0.1l0.6,2.1l-1.5-0.8L53.8,55c0-0.1-0.2-0.1-0.2,0.1l0.4,1.4l-1.2-0.6
						c-0.2-0.1-0.3,0.2-0.1,0.3l1.2,0.7l-1.4,0.4c-0.1,0-0.1,0.2,0.1,0.2l1.6-0.5l1.4,0.8l-2.2,0.6c-0.1,0-0.1,0.2,0.1,0.2l2.3-0.7
						l1.4,0.8L55,59.1c-0.1,0-0.1,0.2,0,0.2l2.4-0.7l2.8,1.5C60.4,60.2,60.6,60,60.4,59.9z"/>
				</g>
				<g>
					<path fill-rule="evenodd" clip-rule="evenodd" fill="#8BC53F" d="M60.6,70.2c-3.8-3.6-3.5-5.3-0.2-8.7
						C63.9,64.8,64.3,66.4,60.6,70.2z"/>
					<path fill-rule="evenodd" clip-rule="evenodd" fill="#006D2D" d="M60.5,60.1l0.1,3.1l1.9,1.7c0.1,0.1,0,0.2-0.1,0.1l-1.8-1.6
						l0,1.7l1.7,1.7c0.1,0.1,0,0.2-0.1,0.1l-1.6-1.5l0,1.7l1.2,1.1c0.1,0.1,0,0.2-0.1,0.1l-1-1l0,1.4c0,0.2-0.3,0.2-0.3,0l0-1.4
						l-1,1c-0.1,0.1-0.2,0-0.1-0.1l1.1-1.2l0-1.6L58.8,67c-0.1,0.1-0.2,0-0.1-0.1l1.7-1.8l0-1.6l-1.6,1.7c-0.1,0.1-0.2,0-0.1-0.1
						l1.7-1.9l-0.1-3.2C60.2,59.9,60.5,59.9,60.5,60.1z"/>
				</g>
			</g>
			<path fill-rule="evenodd" clip-rule="evenodd" fill="#89B334" d="M110.3,25.7l-0.1,2.9c-0.4,0.2-0.3,0.6,0,0.9l-0.7,34.6l3,0
				l-0.4-34.6l0,0c0.4-0.3,0.4-0.7,0-0.9l0-2.1l0.3,0.1c1,0.3,2.4-1.7,0.7-2.6c-0.9-0.3-1.6-0.4-2.2-0.6c-0.2-0.5-0.6-0.8-1.1-0.9
				l5.8-9.2c0.2-0.5-0.4-0.4-0.6-0.1l-6.9,8c-0.3,0.4-0.4,1.1-0.4,1.5c-0.3-0.1-0.6-0.2-0.9-0.2c-2.5-1.2-5-2.6-7.5-3.8
				c-0.4-0.2-0.5,0.2-0.4,0.4c1.7,1.6,3.7,3.1,5.4,4.4c0.5,0.3,1.2,0.3,1.9,0.4c0.4,0.2,0.8,0.4,1.2,0.5c-0.2,0.4-0.6,0.9-0.6,1.3
				c-0.2,4.7-0.4,9.3-0.6,14c0,0.6,0.7,0.5,0.7,0c0.7-4.9,1.3-8.8,2-13.6C109.6,26.1,110,26,110.3,25.7L110.3,25.7z M109.5,23.2
				L109.5,23.2L109.5,23.2L109.5,23.2C109.4,23.2,109.5,23.2,109.5,23.2z"/>
			<g>
				<polygon fill-rule="evenodd" clip-rule="evenodd" fill="#398733" points="398.4,114.4 399.5,117.8 399.5,127.1 398.4,127.1 				
					"/>
				<g>
					<path fill-rule="evenodd" clip-rule="evenodd" fill="#398733" d="M400.8,120.1c1.6-0.7,3-1.3,4.3-1.8c1.1-0.5,2.1-0.9,3-1.3
						c0.2-0.1,0.2-0.4,0.1-0.8c-0.6-1.7-1.2-3.4-1.8-5.1c-0.6-1.7-1.2-3.3-1.7-4.9c-0.1-0.3-0.4-0.6-0.6-0.7
						c-1.1-0.2-2.2-0.5-3.6-0.8c-1.5-0.3-3.1-0.7-5-1.1c-0.4-0.1-0.7,0.2-0.5,0.7c0.8,2.4,1.6,4.8,2.4,7.3c0.8,2.5,1.6,5.1,2.5,7.6
						C400,120,400.5,120.3,400.8,120.1L400.8,120.1z M400.7,119.1c-0.1,0-0.3-0.1-0.3-0.2c-0.8-2.4-1.6-4.8-2.3-7.1
						c-0.8-2.3-1.5-4.6-2.2-6.8c0-0.2,0-0.3,0.1-0.2c1.8,0.3,3.4,0.6,4.8,0.9c1.3,0.2,2.4,0.4,3.4,0.6c0.1,0,0.2,0.1,0.2,0.2
						c0.6,1.6,1.1,3.2,1.7,4.8c0.6,1.6,1.2,3.3,1.7,5c0,0.1,0,0.2,0,0.2c-0.9,0.3-1.8,0.7-2.9,1.1
						C403.6,118,402.3,118.5,400.7,119.1z"/>
					<g>
						<g>
							<g>
								<path fill-rule="evenodd" clip-rule="evenodd" fill="#C9DA2A" d="M400.9,118.4c0.6-0.2,1.1-0.4,1.7-0.6
									c0.1,0,0.1-0.1,0.1-0.3c-0.3-0.8-0.5-1.6-0.8-2.4c0-0.1-0.1-0.2-0.2-0.2c-0.6,0.1-1.1,0.2-1.7,0.4c-0.1,0-0.1,0.1-0.1,0.3
									c0.3,0.9,0.6,1.8,0.9,2.6C400.7,118.3,400.8,118.4,400.9,118.4z"/>
								<path fill-rule="evenodd" clip-rule="evenodd" fill="#C9DA2A" d="M403,117.6c0.5-0.2,1-0.3,1.4-0.5c0.1,0,0.1-0.1,0-0.2
									c-0.3-0.7-0.5-1.5-0.8-2.2c0-0.1-0.1-0.2-0.2-0.2c-0.5,0.1-1,0.2-1.5,0.3c-0.1,0-0.1,0.1-0.1,0.2c0.3,0.8,0.5,1.6,0.8,2.4
									C402.9,117.6,403,117.6,403,117.6z"/>
							</g>
							<g>
								<path fill-rule="evenodd" clip-rule="evenodd" fill="#C9DA2A" d="M399.8,115c0.6-0.1,1.2-0.2,1.8-0.4c0.1,0,0.1-0.1,0.1-0.2
									c-0.3-0.8-0.5-1.6-0.8-2.4c0-0.1-0.1-0.2-0.2-0.2c-0.6,0-1.2,0.1-1.8,0.1c-0.1,0-0.1,0.1-0.1,0.2c0.3,0.9,0.6,1.7,0.8,2.6
									C399.6,114.9,399.7,115,399.8,115z"/>
								<path fill-rule="evenodd" clip-rule="evenodd" fill="#C9DA2A" d="M402,114.5c0.5-0.1,1-0.2,1.5-0.3c0.1,0,0.1-0.1,0.1-0.2
									c-0.2-0.7-0.5-1.5-0.7-2.2c0-0.1-0.1-0.2-0.2-0.2c-0.5,0-1,0.1-1.5,0.1c-0.1,0-0.1,0.1-0.1,0.2c0.3,0.8,0.5,1.6,0.8,2.4
									C401.8,114.4,401.9,114.5,402,114.5z"/>
							</g>
						</g>
						<g>
							<g>
								<path fill-rule="evenodd" clip-rule="evenodd" fill="#C9DA2A" d="M398.6,111.4c0.6,0,1.2-0.1,1.8-0.1c0.1,0,0.1-0.1,0.1-0.2
									c-0.3-0.8-0.5-1.5-0.8-2.3c0-0.1-0.1-0.2-0.2-0.2c-0.6,0-1.2-0.1-1.9-0.1c-0.1,0-0.1,0.1-0.1,0.2c0.3,0.8,0.5,1.7,0.8,2.5
									C398.4,111.3,398.5,111.4,398.6,111.4z"/>
								<path fill-rule="evenodd" clip-rule="evenodd" fill="#C9DA2A" d="M400.9,111.3c0.5,0,1-0.1,1.5-0.1c0.1,0,0.1-0.1,0.1-0.2
									c-0.2-0.7-0.5-1.4-0.7-2.1c0-0.1-0.1-0.2-0.2-0.2c-0.5,0-1-0.1-1.6-0.1c-0.1,0-0.1,0.1-0.1,0.2c0.3,0.8,0.5,1.5,0.8,2.3
									C400.8,111.2,400.9,111.3,400.9,111.3z"/>
							</g>
							<g>
								<path fill-rule="evenodd" clip-rule="evenodd" fill="#C9DA2A" d="M397.5,108.2c0.7,0,1.3,0.1,1.9,0.1c0.1,0,0.1-0.1,0.1-0.2
									c-0.3-0.8-0.5-1.5-0.8-2.3c0-0.1-0.1-0.2-0.2-0.2c-0.6-0.1-1.2-0.2-1.9-0.3c-0.1,0-0.2,0.1-0.1,0.2c0.3,0.8,0.5,1.7,0.8,2.5
									C397.3,108,397.5,108.1,397.5,108.2z"/>
								<path fill-rule="evenodd" clip-rule="evenodd" fill="#C9DA2A" d="M399.9,108.3c0.5,0,1.1,0.1,1.6,0.1c0.1,0,0.1-0.1,0.1-0.2
									c-0.2-0.7-0.5-1.4-0.7-2.1c0-0.1-0.1-0.2-0.2-0.2c-0.5-0.1-1-0.2-1.6-0.3c-0.1,0-0.1,0.1-0.1,0.2c0.3,0.7,0.5,1.5,0.8,2.3
									C399.8,108.2,399.9,108.3,399.9,108.3z"/>
							</g>
						</g>
						<g>
							<g>
								<path fill-rule="evenodd" clip-rule="evenodd" fill="#C9DA2A" d="M404.9,117c0.4-0.1,0.8-0.3,1.2-0.4c0.1,0,0.1-0.1,0-0.2
									c-0.2-0.7-0.5-1.4-0.7-2c0-0.1-0.1-0.2-0.2-0.2c-0.4,0.1-0.8,0.2-1.2,0.3c-0.1,0-0.1,0.1-0.1,0.2c0.2,0.7,0.5,1.4,0.7,2.2
									C404.8,116.9,404.9,117,404.9,117z"/>
								<path fill-rule="evenodd" clip-rule="evenodd" fill="#C9DA2A" d="M406.4,116.4c0.4-0.1,0.7-0.2,1-0.4c0,0,0.1-0.1,0-0.2
									c-0.2-0.6-0.4-1.3-0.7-1.9c0-0.1-0.1-0.2-0.1-0.1c-0.3,0.1-0.7,0.1-1.1,0.2c-0.1,0-0.1,0.1,0,0.2c0.2,0.7,0.5,1.3,0.7,2
									C406.3,116.4,406.4,116.5,406.4,116.4z"/>
							</g>
							<g>
								<path fill-rule="evenodd" clip-rule="evenodd" fill="#C9DA2A" d="M404,114.1c0.4-0.1,0.8-0.2,1.2-0.2c0.1,0,0.1-0.1,0-0.2
									c-0.2-0.7-0.5-1.3-0.7-2c0-0.1-0.1-0.2-0.2-0.2c-0.4,0-0.8,0.1-1.3,0.1c-0.1,0-0.1,0.1-0.1,0.2c0.2,0.7,0.5,1.4,0.7,2.2
									C403.8,114.1,403.9,114.1,404,114.1z"/>
								<path fill-rule="evenodd" clip-rule="evenodd" fill="#C9DA2A" d="M405.5,113.8c0.4-0.1,0.7-0.1,1.1-0.2c0,0,0.1-0.1,0-0.2
									c-0.2-0.6-0.4-1.2-0.6-1.9c0-0.1-0.1-0.2-0.1-0.2c-0.4,0-0.7,0.1-1.1,0.1c-0.1,0-0.1,0.1,0,0.2c0.2,0.7,0.5,1.3,0.7,2
									C405.4,113.7,405.5,113.8,405.5,113.8z"/>
							</g>
						</g>
						<g>
							<g>
								<path fill-rule="evenodd" clip-rule="evenodd" fill="#C9DA2A" d="M403,111.2c0.4,0,0.9,0,1.3-0.1c0.1,0,0.1-0.1,0-0.2
									c-0.2-0.7-0.5-1.3-0.7-2c0-0.1-0.1-0.2-0.2-0.2c-0.4,0-0.9,0-1.3-0.1c-0.1,0-0.1,0.1-0.1,0.2c0.2,0.7,0.5,1.4,0.7,2.1
									C402.8,111.1,402.9,111.2,403,111.2z"/>
								<path fill-rule="evenodd" clip-rule="evenodd" fill="#C9DA2A" d="M404.6,111.1c0.4,0,0.7,0,1.1-0.1c0.1,0,0.1-0.1,0-0.2
									c-0.2-0.6-0.4-1.2-0.6-1.8c0-0.1-0.1-0.2-0.2-0.2c-0.4,0-0.7,0-1.1-0.1c-0.1,0-0.1,0.1,0,0.2c0.2,0.6,0.4,1.3,0.7,2
									C404.5,111,404.5,111.1,404.6,111.1z"/>
							</g>
							<g>
								<path fill-rule="evenodd" clip-rule="evenodd" fill="#C9DA2A" d="M402,108.4c0.5,0,0.9,0.1,1.3,0.1c0.1,0,0.1-0.1,0.1-0.2
									c-0.2-0.6-0.4-1.3-0.7-1.9c0-0.1-0.1-0.2-0.2-0.2c-0.4-0.1-0.9-0.1-1.4-0.2c-0.1,0-0.1,0.1-0.1,0.2c0.2,0.7,0.5,1.4,0.7,2.1
									C401.9,108.4,402,108.4,402,108.4z"/>
								<path fill-rule="evenodd" clip-rule="evenodd" fill="#C9DA2A" d="M403.7,108.6c0.4,0,0.8,0.1,1.1,0.1c0.1,0,0.1-0.1,0-0.2
									c-0.2-0.6-0.4-1.2-0.6-1.8c0-0.1-0.1-0.2-0.2-0.2c-0.4-0.1-0.8-0.1-1.2-0.2c-0.1,0-0.1,0.1-0.1,0.2c0.2,0.6,0.4,1.3,0.7,1.9
									C403.6,108.5,403.7,108.6,403.7,108.6z"/>
							</g>
						</g>
					</g>
				</g>
			</g>
			<path fill-rule="evenodd" clip-rule="evenodd" fill="#89B334" d="M412.9,33l-0.1,2.9c-0.4,0.2-0.3,0.6,0,0.9l-1.2,106.6l3,0
				l0.1-106.6l0,0c0.4-0.3,0.4-0.7,0-0.9l0-2.1l0.3,0.1c1,0.3,2.4-1.7,0.7-2.6c-0.9-0.3-1.6-0.4-2.2-0.6c-0.2-0.5-0.6-0.8-1.1-0.9
				l5.8-9.2c0.2-0.5-0.4-0.4-0.6-0.1l-6.9,8c-0.3,0.4-0.4,1.1-0.4,1.5c-0.3-0.1-0.6-0.1-0.9-0.2c-2.5-1.2-5-2.6-7.5-3.8
				c-0.4-0.2-0.5,0.2-0.4,0.4c1.7,1.6,3.7,3.1,5.4,4.4c0.5,0.3,1.2,0.3,1.9,0.4c0.4,0.2,0.8,0.4,1.2,0.5c-0.2,0.4-0.6,0.9-0.6,1.3
				c-0.2,4.7-0.4,9.3-0.6,14c0,0.6,0.7,0.5,0.7,0c0.7-4.9,1.3-8.8,2-13.6C412.1,33.4,412.5,33.3,412.9,33L412.9,33z M412,30.5
				L412,30.5L412,30.5L412,30.5C412,30.5,412,30.5,412,30.5z"/>
			<path fill-rule="evenodd" clip-rule="evenodd" fill="#C3D82E" d="M301.6,48.3l0.1,4.1c0.5,0.3,0.4,0.9,0,1.3l1,90.5l-4.3,0
				l0.6-90.5c0,0,0,0-0.1,0c-0.6-0.5-0.5-1,0.1-1.3l0-3c-0.1,0.1-0.3,0.1-0.4,0.2c-1.4,0.4-3.3-2.4-1-3.7c1.3-0.3,2.3-0.6,3.2-0.8
				c0.3-0.8,0.9-1.2,1.6-1.3l-8.2-13.3c-0.3-0.7,0.6-0.6,0.8-0.1l9.7,11.5c0.4,0.6,0.5,1.5,0.6,2.2c0.4-0.1,0.8-0.2,1.3-0.3
				c3.6-1.7,7.2-3.7,10.7-5.3c0.5-0.3,0.7,0.3,0.5,0.5c-2.4,2.2-5.3,4.3-7.8,6.2c-0.8,0.4-1.7,0.4-2.7,0.5c-0.6,0.3-1.2,0.5-1.7,0.8
				c0.3,0.6,0.9,1.2,0.9,1.9c0.3,6.7,0.4,13.3,0.6,20c0,0.8-1,0.8-1,0c-0.9-7-1.8-12.6-2.7-19.4C302.7,48.9,302.1,48.7,301.6,48.3
				L301.6,48.3z M302.9,44.7L302.9,44.7L302.9,44.7C302.9,44.7,302.9,44.7,302.9,44.7z"/>
			<path fill-rule="evenodd" clip-rule="evenodd" fill="#89B334" d="M231.2,63.5l0.1,2c0.3,0.2,0.2,0.4,0,0.6l0.9,58.5l-2.1,0
				l-0.1-58.5l0,0c-0.3-0.2-0.3-0.5,0-0.7l0-1.5l-0.2,0.1c-0.7,0.2-1.7-1.2-0.5-1.8c0.6-0.2,1.1-0.3,1.6-0.4
				c0.1-0.4,0.4-0.6,0.8-0.6l-4.1-6.5c-0.1-0.3,0.3-0.3,0.4-0.1l4.8,5.6c0.2,0.3,0.2,0.7,0.3,1.1c0.2,0,0.4-0.1,0.6-0.2
				c1.7-0.8,3.5-1.8,5.2-2.7c0.2-0.1,0.4,0.1,0.3,0.3c-1.2,1.1-2.6,2.1-3.8,3.1c-0.4,0.2-0.8,0.2-1.3,0.2c-0.3,0.1-0.6,0.3-0.8,0.4
				c0.2,0.3,0.4,0.6,0.4,0.9c0.2,3.3,0.3,6.5,0.4,9.8c0,0.4-0.5,0.4-0.5,0c-0.5-3.4-0.9-6.2-1.4-9.5
				C231.7,63.7,231.4,63.7,231.2,63.5L231.2,63.5z M231.8,61.7L231.8,61.7L231.8,61.7L231.8,61.7C231.8,61.7,231.8,61.7,231.8,61.7z
				"/>
			<path fill-rule="evenodd" clip-rule="evenodd" fill="#89B334" d="M241.4,80.2l0.1,2c0.3,0.2,0.2,0.4,0,0.6l0.9,37.4l-2.1,0
				l-0.1-37.4l0,0c-0.3-0.2-0.3-0.5,0-0.7l0-1.5l-0.2,0.1c-0.7,0.2-1.7-1.2-0.5-1.8c0.6-0.2,1.1-0.3,1.6-0.4
				c0.1-0.4,0.4-0.6,0.8-0.6l-4.1-6.5c-0.1-0.3,0.3-0.3,0.4-0.1l4.8,5.6c0.2,0.3,0.2,0.7,0.3,1.1c0.2,0,0.4-0.1,0.6-0.2
				c1.7-0.8,3.5-1.8,5.2-2.7c0.2-0.1,0.4,0.1,0.3,0.3c-1.2,1.1-2.6,2.1-3.8,3.1c-0.4,0.2-0.8,0.2-1.3,0.2c-0.3,0.1-0.6,0.3-0.8,0.4
				c0.2,0.3,0.4,0.6,0.4,0.9c0.2,3.3,0.3,6.5,0.4,9.8c0,0.4-0.5,0.4-0.5,0c-0.5-3.4-0.9-6.2-1.4-9.5
				C241.9,80.4,241.6,80.3,241.4,80.2L241.4,80.2z M242,78.4L242,78.4L242,78.4L242,78.4C242,78.4,242,78.4,242,78.4z"/>
			<g>
				<polygon fill-rule="evenodd" clip-rule="evenodd" fill="#006D2D" points="365.6,68.6 366.4,69.6 367.3,68.7 369.8,143.9 
					363.7,143.8 				"/>
				<g>
					<path fill-rule="evenodd" clip-rule="evenodd" fill="#8BC53F" d="M365.6,40.3c-6,6.3-5.3,9,0.4,14.4
						C371.5,49,372,46.3,365.6,40.3z"/>
					<path fill-rule="evenodd" clip-rule="evenodd" fill="#006D2D" d="M366.4,57.1l-0.1-5.2l3-3c0.1-0.2-0.1-0.4-0.2-0.2l-2.7,2.8
						l-0.1-2.7l2.7-2.9c0.1-0.1-0.1-0.4-0.2-0.2l-2.5,2.7l-0.1-2.7l1.8-1.9c0.1-0.1-0.1-0.4-0.2-0.2l-1.6,1.7l-0.1-2.2
						c0-0.3-0.5-0.3-0.5,0l0.1,2.3l-1.7-1.6c-0.1-0.1-0.4,0.1-0.2,0.2l1.9,1.8l0.1,2.7l-2.7-2.6c-0.1-0.1-0.4,0.1-0.2,0.2l2.9,2.8
						l0.1,2.7l-2.7-2.7c-0.2-0.1-0.4,0.1-0.2,0.2l3,2.9l0.1,5.2C365.9,57.4,366.4,57.4,366.4,57.1z"/>
				</g>
				<g>
					<path fill-rule="evenodd" clip-rule="evenodd" fill="#8BC53F" d="M351.7,66.3c8.5,2,10.5,0.1,12.3-7.6
						C356.3,56.9,353.7,57.8,351.7,66.3z"/>
					<path fill-rule="evenodd" clip-rule="evenodd" fill="#006D2D" d="M365.8,57.3l-4.4,2.7l-4.1-1.1c-0.2-0.1-0.3,0.2-0.1,0.3
						l3.8,1l-2.3,1.4l-3.9-0.9c-0.2,0-0.3,0.3-0.1,0.3l3.6,0.9l-2.3,1.4l-2.6-0.6c-0.2,0-0.3,0.3-0.1,0.3l2.3,0.5l-1.9,1.2
						c-0.3,0.2,0,0.6,0.3,0.4l2-1.2l-0.5,2.3c0,0.2,0.3,0.3,0.3,0.1l0.6-2.6l2.3-1.4l-0.9,3.6c0,0.2,0.3,0.3,0.3,0.1L359,62l2.3-1.4
						l-1,3.7c-0.1,0.2,0.2,0.3,0.3,0.1l1.1-4l4.4-2.7C366.4,57.5,366.1,57.1,365.8,57.3z"/>
				</g>
				<g>
					<path fill-rule="evenodd" clip-rule="evenodd" fill="#8BC53F" d="M381.1,65.4c-2.5-8.4-5.1-9.1-12.7-6.9
						C370.7,66.1,372.8,67.9,381.1,65.4z"/>
					<path fill-rule="evenodd" clip-rule="evenodd" fill="#006D2D" d="M366.3,57.6l4.6,2.5l1.1,4.1c0.1,0.2,0.4,0.1,0.3-0.1l-1-3.8
						l2.4,1.3l1.1,3.8c0.1,0.2,0.4,0.1,0.3-0.1l-1-3.5l2.4,1.3l0.8,2.5c0.1,0.2,0.3,0.1,0.3-0.1l-0.7-2.2l2,1.1
						c0.3,0.2,0.5-0.3,0.2-0.4l-2-1.1l2.3-0.7c0.2-0.1,0.1-0.4-0.1-0.3l-2.6,0.8l-2.4-1.3l3.6-1.1c0.2-0.1,0.1-0.4-0.1-0.3l-3.9,1.2
						l-2.3-1.3l3.7-1c0.2-0.1,0.1-0.4-0.1-0.3l-4,1.1l-4.6-2.5C366.2,57,366,57.5,366.3,57.6z"/>
				</g>
				<g>
					<path fill-rule="evenodd" clip-rule="evenodd" fill="#8BC53F" d="M376.3,51.1c-6-1.4-7.4-0.1-8.7,5.4
						C373.1,57.7,374.9,57.1,376.3,51.1z"/>
					<path fill-rule="evenodd" clip-rule="evenodd" fill="#006D2D" d="M366.3,57.5l3.1-1.9l2.9,0.8c0.1,0,0.2-0.2,0.1-0.2l-2.7-0.7
						l1.7-1l2.7,0.7c0.1,0,0.2-0.2,0.1-0.2l-2.5-0.6l1.7-1l1.8,0.4c0.1,0,0.2-0.2,0-0.2l-1.6-0.4l1.4-0.8c0.2-0.1,0-0.4-0.2-0.3
						l-1.4,0.9l0.4-1.6c0-0.1-0.2-0.2-0.2-0.1l-0.4,1.8l-1.6,1l0.6-2.6c0-0.1-0.2-0.2-0.2,0l-0.7,2.8l-1.6,1l0.7-2.6
						c0-0.1-0.2-0.2-0.2-0.1l-0.7,2.9l-3.1,1.9C365.9,57.3,366.1,57.6,366.3,57.5z"/>
				</g>
				<g>
					<path fill-rule="evenodd" clip-rule="evenodd" fill="#8BC53F" d="M355.6,51.6c1.8,5.9,3.6,6.5,9,4.9
						C363,51.1,361.5,49.9,355.6,51.6z"/>
					<path fill-rule="evenodd" clip-rule="evenodd" fill="#006D2D" d="M366.1,57.1l-3.2-1.7l-0.8-2.9c0-0.1-0.2-0.1-0.2,0.1l0.7,2.7
						l-1.7-0.9l-0.8-2.7c0-0.1-0.2-0.1-0.2,0.1l0.7,2.5l-1.7-0.9l-0.5-1.8c0-0.1-0.2-0.1-0.2,0.1l0.5,1.6l-1.4-0.8
						c-0.2-0.1-0.4,0.2-0.2,0.3l1.4,0.8l-1.6,0.5c-0.1,0-0.1,0.2,0.1,0.2l1.8-0.5l1.7,0.9l-2.5,0.8c-0.1,0-0.1,0.2,0.1,0.2l2.7-0.8
						l1.7,0.9l-2.6,0.7c-0.1,0-0.1,0.2,0.1,0.2l2.8-0.8l3.2,1.8C366.1,57.5,366.3,57.2,366.1,57.1z"/>
				</g>
				<g>
					<path fill-rule="evenodd" clip-rule="evenodd" fill="#8BC53F" d="M366.4,69.2c-4.5-4.2-4.1-6.1-0.3-10.2
						C370.2,62.9,370.7,64.7,366.4,69.2z"/>
					<path fill-rule="evenodd" clip-rule="evenodd" fill="#006D2D" d="M366.3,57.4l0.1,3.7l2.2,2c0.1,0.1,0,0.3-0.1,0.2l-2.1-1.9
						l0.1,1.9l2,1.9c0.1,0.1,0,0.3-0.1,0.2l-1.9-1.8l0.1,1.9l1.4,1.3c0.1,0.1,0,0.3-0.1,0.2l-1.2-1.1l0,1.6c0,0.2-0.3,0.2-0.3,0
						l0-1.6L365,67c-0.1,0.1-0.3,0-0.2-0.1l1.3-1.4l-0.1-1.9l-1.8,1.9c-0.1,0.1-0.3,0-0.2-0.1l2-2.1l-0.1-1.9l-1.8,2
						c-0.1,0.1-0.3,0-0.2-0.1l2-2.2l-0.1-3.7C365.9,57.1,366.2,57.1,366.3,57.4z"/>
				</g>
			</g>
			<g>
				<polygon fill-rule="evenodd" clip-rule="evenodd" fill="#006D2D" points="260.5,55.1 261.3,56 262.2,55.2 264.7,130.3 
					258.6,130.3 				"/>
				<g>
					<path fill-rule="evenodd" clip-rule="evenodd" fill="#8BC53F" d="M260.6,26.8c-6,6.3-5.3,9,0.4,14.4
						C266.4,35.4,266.9,32.8,260.6,26.8z"/>
					<path fill-rule="evenodd" clip-rule="evenodd" fill="#006D2D" d="M261.3,43.5l-0.1-5.2l3-3c0.1-0.2-0.1-0.4-0.2-0.2l-2.7,2.8
						l-0.1-2.7l2.7-2.9c0.1-0.1-0.1-0.4-0.2-0.2l-2.5,2.7l-0.1-2.7l1.8-1.9c0.1-0.1-0.1-0.4-0.2-0.2l-1.6,1.7l-0.1-2.2
						c0-0.3-0.5-0.3-0.5,0l0.1,2.3l-1.7-1.6c-0.1-0.1-0.4,0.1-0.2,0.2l1.9,1.8l0.1,2.7l-2.7-2.6c-0.1-0.1-0.4,0.1-0.2,0.2l2.9,2.8
						l0.1,2.7l-2.7-2.7c-0.2-0.1-0.4,0.1-0.2,0.2l3,2.9l0.1,5.2C260.8,43.9,261.3,43.8,261.3,43.5z"/>
				</g>
				<g>
					<path fill-rule="evenodd" clip-rule="evenodd" fill="#8BC53F" d="M246.6,52.7c8.5,2,10.5,0.1,12.3-7.6
						C251.2,43.3,248.6,44.2,246.6,52.7z"/>
					<path fill-rule="evenodd" clip-rule="evenodd" fill="#006D2D" d="M260.7,43.7l-4.4,2.7l-4.1-1.1c-0.2-0.1-0.3,0.2-0.1,0.3
						l3.8,1l-2.3,1.4l-3.9-0.9c-0.2,0-0.3,0.3-0.1,0.3l3.6,0.9l-2.3,1.4l-2.6-0.6c-0.2,0-0.3,0.3-0.1,0.3l2.3,0.5l-1.9,1.2
						c-0.3,0.2,0,0.6,0.3,0.4l2-1.2l-0.5,2.3c0,0.2,0.3,0.3,0.3,0.1l0.6-2.6l2.3-1.4l-0.9,3.6c0,0.2,0.3,0.3,0.3,0.1l0.9-3.9
						l2.3-1.4l-1,3.7c-0.1,0.2,0.2,0.3,0.3,0.1l1.1-4l4.4-2.7C261.3,44,261,43.5,260.7,43.7z"/>
				</g>
				<g>
					<path fill-rule="evenodd" clip-rule="evenodd" fill="#8BC53F" d="M276,51.8c-2.5-8.4-5.1-9.1-12.7-6.9
						C265.6,52.5,267.7,54.3,276,51.8z"/>
					<path fill-rule="evenodd" clip-rule="evenodd" fill="#006D2D" d="M261.2,44.1l4.6,2.5l1.1,4.1c0.1,0.2,0.4,0.1,0.3-0.1l-1-3.8
						l2.4,1.3l1.1,3.8c0.1,0.2,0.3,0.1,0.3-0.1l-1-3.5l2.4,1.3l0.8,2.5c0.1,0.2,0.3,0.1,0.3-0.1l-0.7-2.2l2,1.1
						c0.3,0.2,0.5-0.3,0.2-0.4l-2-1.1l2.3-0.7c0.2-0.1,0.1-0.3-0.1-0.3l-2.6,0.8l-2.4-1.3l3.6-1.1c0.2-0.1,0.1-0.3-0.1-0.3l-3.9,1.2
						l-2.3-1.3l3.7-1c0.2-0.1,0.1-0.4-0.1-0.3l-4,1.1l-4.6-2.5C261.1,43.5,260.9,43.9,261.2,44.1z"/>
				</g>
				<g>
					<path fill-rule="evenodd" clip-rule="evenodd" fill="#8BC53F" d="M271.2,37.5c-6-1.4-7.4-0.1-8.7,5.4
						C268,44.2,269.8,43.5,271.2,37.5z"/>
					<path fill-rule="evenodd" clip-rule="evenodd" fill="#006D2D" d="M261.2,43.9l3.1-1.9l2.9,0.8c0.1,0,0.2-0.2,0.1-0.2l-2.7-0.7
						l1.7-1l2.7,0.7c0.1,0,0.2-0.2,0-0.2l-2.5-0.6l1.7-1l1.8,0.4c0.1,0,0.2-0.2,0-0.2l-1.6-0.4l1.4-0.8c0.2-0.1,0-0.4-0.2-0.3
						l-1.4,0.9l0.4-1.6c0-0.1-0.2-0.2-0.2-0.1l-0.4,1.8l-1.6,1l0.6-2.6c0-0.1-0.2-0.2-0.2-0.1l-0.7,2.8l-1.6,1l0.7-2.6
						c0-0.1-0.2-0.2-0.2-0.1l-0.7,2.9l-3.1,1.9C260.8,43.7,261,44,261.2,43.9z"/>
				</g>
				<g>
					<path fill-rule="evenodd" clip-rule="evenodd" fill="#8BC53F" d="M250.5,38.1c1.8,5.9,3.6,6.5,9,4.9
						C257.9,37.6,256.4,36.3,250.5,38.1z"/>
					<path fill-rule="evenodd" clip-rule="evenodd" fill="#006D2D" d="M261,43.6l-3.2-1.7L257,39c0-0.1-0.2-0.1-0.2,0.1l0.7,2.7
						l-1.7-0.9l-0.8-2.7c0-0.1-0.2-0.1-0.2,0.1l0.7,2.5l-1.7-0.9l-0.5-1.8c0-0.1-0.2-0.1-0.2,0.1l0.5,1.6l-1.4-0.8
						c-0.2-0.1-0.4,0.2-0.2,0.3l1.4,0.8l-1.6,0.5c-0.1,0-0.1,0.2,0.1,0.2l1.8-0.5l1.7,0.9l-2.5,0.8c-0.1,0-0.1,0.2,0.1,0.2l2.7-0.8
						l1.7,0.9l-2.6,0.7c-0.1,0-0.1,0.2,0.1,0.2l2.8-0.8l3.2,1.8C261,44,261.2,43.7,261,43.6z"/>
				</g>
				<g>
					<path fill-rule="evenodd" clip-rule="evenodd" fill="#8BC53F" d="M261.3,55.7c-4.5-4.2-4.1-6.1-0.3-10.2
						C265.1,49.3,265.6,51.2,261.3,55.7z"/>
					<path fill-rule="evenodd" clip-rule="evenodd" fill="#006D2D" d="M261.2,43.8l0.1,3.7l2.2,2c0.1,0.1,0,0.3-0.1,0.2l-2.1-1.9
						l0.1,1.9l2,1.9c0.1,0.1,0,0.3-0.1,0.2l-1.9-1.8l0.1,1.9l1.4,1.3c0.1,0.1,0,0.3-0.1,0.2l-1.2-1.1l0,1.6c0,0.2-0.3,0.2-0.3,0
						l0-1.6l-1.2,1.2c-0.1,0.1-0.3,0-0.2-0.1l1.3-1.4L261,50l-1.8,1.9c-0.1,0.1-0.3,0-0.2-0.1l2-2.1l-0.1-1.9l-1.8,2
						c-0.1,0.1-0.3,0-0.2-0.1l2-2.2l-0.1-3.7C260.8,43.6,261.2,43.6,261.2,43.8z"/>
				</g>
			</g>
			<g>
				<polygon fill-rule="evenodd" clip-rule="evenodd" fill="#006D2D" points="188.7,98.9 189.2,99.4 189.7,98.9 191.2,144.3 
					187.5,144.3 				"/>
				<g>
					<path fill-rule="evenodd" clip-rule="evenodd" fill="#8BC53F" d="M188.7,81.7c-3.6,3.8-3.2,5.4,0.2,8.7
						C192.2,87,192.5,85.4,188.7,81.7z"/>
					<path fill-rule="evenodd" clip-rule="evenodd" fill="#006D2D" d="M189.2,91.9l-0.1-3.1l1.8-1.8c0.1-0.1,0-0.2-0.1-0.1l-1.7,1.7
						l0-1.7l1.6-1.7c0.1-0.1-0.1-0.2-0.1-0.1l-1.5,1.6l0-1.7l1.1-1.2c0.1-0.1-0.1-0.2-0.1-0.1l-1,1l0-1.4c0-0.2-0.3-0.2-0.3,0l0,1.4
						l-1-1c-0.1-0.1-0.2,0.1-0.1,0.1l1.2,1.1l0,1.6l-1.6-1.5c-0.1-0.1-0.2,0.1-0.1,0.1l1.8,1.7l0,1.6l-1.7-1.6
						c-0.1-0.1-0.2,0-0.1,0.1l1.8,1.8l0.1,3.1C188.9,92.1,189.2,92.1,189.2,91.9z"/>
				</g>
				<g>
					<path fill-rule="evenodd" clip-rule="evenodd" fill="#8BC53F" d="M180.3,97.4c5.1,1.2,6.3,0.1,7.4-4.6
						C183.1,91.7,181.5,92.3,180.3,97.4z"/>
					<path fill-rule="evenodd" clip-rule="evenodd" fill="#006D2D" d="M188.8,92l-2.7,1.6l-2.5-0.6c-0.1,0-0.2,0.1,0,0.2l2.3,0.6
						l-1.4,0.9l-2.3-0.6c-0.1,0-0.2,0.2,0,0.2l2.2,0.5l-1.4,0.9l-1.5-0.4c-0.1,0-0.2,0.2,0,0.2l1.4,0.3l-1.2,0.7
						c-0.2,0.1,0,0.4,0.2,0.3l1.2-0.7l-0.3,1.4c0,0.1,0.2,0.2,0.2,0l0.4-1.6l1.4-0.9l-0.5,2.2c0,0.1,0.2,0.2,0.2,0l0.6-2.4l1.4-0.8
						l-0.6,2.2c0,0.1,0.1,0.2,0.2,0l0.6-2.4l2.7-1.6C189.1,92.1,189,91.9,188.8,92z"/>
				</g>
				<g>
					<path fill-rule="evenodd" clip-rule="evenodd" fill="#8BC53F" d="M198.1,96.9c-1.5-5.1-3.1-5.5-7.7-4.1
						C191.8,97.3,193,98.4,198.1,96.9z"/>
					<path fill-rule="evenodd" clip-rule="evenodd" fill="#006D2D" d="M189.1,92.2l2.8,1.5l0.7,2.4c0,0.1,0.2,0.1,0.2,0l-0.6-2.3
						l1.5,0.8l0.7,2.3c0,0.1,0.2,0.1,0.2-0.1l-0.6-2.1l1.5,0.8l0.5,1.5c0,0.1,0.2,0.1,0.2-0.1l-0.4-1.3l1.2,0.6
						c0.2,0.1,0.3-0.2,0.1-0.3l-1.2-0.7l1.4-0.4c0.1,0,0.1-0.2-0.1-0.2l-1.5,0.5l-1.4-0.8l2.2-0.6c0.1,0,0.1-0.2-0.1-0.2l-2.3,0.7
						l-1.4-0.8l2.2-0.6c0.1,0,0.1-0.2,0-0.2l-2.4,0.7l-2.8-1.5C189.1,91.8,188.9,92.1,189.1,92.2z"/>
				</g>
				<g>
					<path fill-rule="evenodd" clip-rule="evenodd" fill="#8BC53F" d="M195.2,88.2c-3.6-0.9-4.5-0.1-5.3,3.2
						C193.2,92.3,194.3,91.9,195.2,88.2z"/>
					<path fill-rule="evenodd" clip-rule="evenodd" fill="#006D2D" d="M189.1,92.1l1.9-1.2l1.7,0.5c0.1,0,0.1-0.1,0-0.1l-1.6-0.4
						l1-0.6l1.7,0.4c0.1,0,0.1-0.1,0-0.1l-1.5-0.4l1-0.6l1.1,0.3c0.1,0,0.1-0.1,0-0.1l-1-0.2l0.8-0.5c0.1-0.1,0-0.3-0.1-0.2
						l-0.8,0.5l0.2-1c0-0.1-0.1-0.1-0.1,0l-0.3,1.1l-1,0.6l0.4-1.5c0-0.1-0.1-0.1-0.1,0l-0.4,1.7l-1,0.6l0.4-1.6
						c0-0.1-0.1-0.1-0.1,0l-0.5,1.7l-1.9,1.2C188.9,92,189,92.2,189.1,92.1z"/>
				</g>
				<g>
					<path fill-rule="evenodd" clip-rule="evenodd" fill="#8BC53F" d="M182.6,88.6c1.1,3.6,2.2,3.9,5.4,2.9
						C187.1,88.3,186.2,87.5,182.6,88.6z"/>
					<path fill-rule="evenodd" clip-rule="evenodd" fill="#006D2D" d="M189,91.9l-1.9-1.1l-0.5-1.7c0-0.1-0.1-0.1-0.1,0l0.4,1.6
						l-1-0.6l-0.5-1.6c0-0.1-0.1,0-0.1,0l0.4,1.5l-1-0.6l-0.3-1.1c0-0.1-0.1,0-0.1,0l0.3,1l-0.8-0.5c-0.1-0.1-0.2,0.1-0.1,0.2
						l0.9,0.5l-1,0.3c-0.1,0,0,0.1,0,0.1l1.1-0.3l1,0.5l-1.5,0.5c-0.1,0,0,0.1,0,0.1l1.7-0.5l1,0.5l-1.6,0.4c-0.1,0-0.1,0.1,0,0.1
						l1.7-0.5l2,1.1C189,92.2,189.1,92,189,91.9z"/>
				</g>
				<g>
					<path fill-rule="evenodd" clip-rule="evenodd" fill="#8BC53F" d="M189.2,99.2c-2.7-2.6-2.5-3.7-0.2-6.2
						C191.5,95.4,191.7,96.5,189.2,99.2z"/>
					<path fill-rule="evenodd" clip-rule="evenodd" fill="#006D2D" d="M189.1,92l0.1,2.2l1.3,1.2c0.1,0.1,0,0.2-0.1,0.1l-1.2-1.1
						l0,1.2l1.2,1.2c0.1,0.1,0,0.2-0.1,0.1l-1.1-1.1l0,1.2l0.8,0.8c0.1,0.1,0,0.2-0.1,0.1l-0.7-0.7l0,1c0,0.1-0.2,0.1-0.2,0l0-1
						l-0.7,0.7c-0.1,0.1-0.2,0-0.1-0.1l0.8-0.8l0-1.2l-1.1,1.2c-0.1,0.1-0.2,0-0.1-0.1l1.2-1.3l0-1.1l-1.1,1.2
						c-0.1,0.1-0.2,0-0.1-0.1l1.2-1.3l-0.1-2.2C188.9,91.9,189.1,91.9,189.1,92z"/>
				</g>
			</g>
			<g>
				<g>
					<path fill-rule="evenodd" clip-rule="evenodd" fill="#8BC53F" d="M293.7,74.1c-9.7,0-11.3,2.6-11.3,11.3
						C291.2,85.4,293.7,83.8,293.7,74.1z"/>
					<path fill-rule="evenodd" clip-rule="evenodd" fill="#54A640" d="M280.8,87.5l11.2-11.2c0.3-0.3-0.1-0.6-0.4-0.4l-11.2,11.2
						C280.1,87.3,280.5,87.7,280.8,87.5z"/>
					<path fill-rule="evenodd" clip-rule="evenodd" fill="#54A640" d="M289.7,78.3l0-3.2c0-0.2-0.3-0.2-0.3,0v3.2
						C289.4,78.5,289.7,78.5,289.7,78.3z"/>
					<path fill-rule="evenodd" clip-rule="evenodd" fill="#54A640" d="M289.6,78.4l3.2,0c0.2,0,0.2-0.3,0-0.3h-3.2
						C289.4,78.1,289.4,78.4,289.6,78.4z"/>
					<path fill-rule="evenodd" clip-rule="evenodd" fill="#54A640" d="M287.2,80.6l0-4.6c0-0.2-0.3-0.2-0.3,0l0,4.6
						C286.9,80.9,287.2,80.9,287.2,80.6z"/>
					<path fill-rule="evenodd" clip-rule="evenodd" fill="#54A640" d="M287.2,80.9l4.6,0c0.2,0,0.2-0.3,0-0.3h-4.6
						C286.9,80.6,286.9,80.9,287.2,80.9z"/>
					<path fill-rule="evenodd" clip-rule="evenodd" fill="#54A640" d="M284.8,83.2l0.1-4.8c0-0.2-0.3-0.2-0.3,0l-0.1,4.8
						C284.5,83.4,284.8,83.4,284.8,83.2z"/>
					<path fill-rule="evenodd" clip-rule="evenodd" fill="#54A640" d="M284.7,83.4l4.8,0.1c0.2,0,0.2-0.3,0-0.3l-4.8-0.1
						C284.5,83,284.5,83.4,284.7,83.4z"/>
				</g>
				<g>
					<path fill-rule="evenodd" clip-rule="evenodd" fill="#8BC53F" d="M253.4,84.6c7,1.8,7.6,4,6,10.3
						C253.1,93.2,251.6,91.6,253.4,84.6z"/>
					<path fill-rule="evenodd" clip-rule="evenodd" fill="#54A640" d="M260.2,96.6l-5.9-10.1c-0.1-0.2,0.2-0.4,0.3-0.2l5.9,10.1
						C260.7,96.7,260.3,96.9,260.2,96.6z"/>
					<path fill-rule="evenodd" clip-rule="evenodd" fill="#54A640" d="M255.5,88.4l0.6-2.3c0-0.2,0.3-0.1,0.2,0.1l-0.6,2.3
						C255.7,88.6,255.5,88.5,255.5,88.4z"/>
					<path fill-rule="evenodd" clip-rule="evenodd" fill="#54A640" d="M255.6,88.5l-2.3-0.6c-0.2,0-0.1-0.3,0.1-0.2l2.3,0.6
						C255.8,88.3,255.7,88.5,255.6,88.5z"/>
					<path fill-rule="evenodd" clip-rule="evenodd" fill="#54A640" d="M256.8,90.5l0.9-3.3c0-0.2,0.3-0.1,0.2,0.1l-0.9,3.3
						C257,90.8,256.8,90.7,256.8,90.5z"/>
					<path fill-rule="evenodd" clip-rule="evenodd" fill="#54A640" d="M256.9,90.7l-3.3-0.9c-0.2,0-0.1-0.3,0.1-0.2l3.3,0.9
						C257.1,90.5,257,90.8,256.9,90.7z"/>
					<path fill-rule="evenodd" clip-rule="evenodd" fill="#54A640" d="M258.1,92.8l0.8-3.5c0-0.2,0.3-0.1,0.2,0.1l-0.8,3.5
						C258.3,93,258.1,93,258.1,92.8z"/>
					<path fill-rule="evenodd" clip-rule="evenodd" fill="#54A640" d="M258.2,93l-3.5-0.8c-0.2,0-0.1-0.3,0.1-0.2l3.5,0.8
						C258.4,92.8,258.3,93,258.2,93z"/>
				</g>
				<g>
					<path fill-rule="evenodd" clip-rule="evenodd" fill="#8BC53F" d="M267.7,87.4c-5.4,1.4-5.9,3.1-4.6,7.9
						C267.9,94.1,269.1,92.8,267.7,87.4z"/>
					<path fill-rule="evenodd" clip-rule="evenodd" fill="#54A640" d="M262.4,96.7l4.6-7.8c0.1-0.2-0.2-0.3-0.3-0.2l-4.6,7.8
						C262.1,96.7,262.3,96.9,262.4,96.7z"/>
					<path fill-rule="evenodd" clip-rule="evenodd" fill="#54A640" d="M266.1,90.3l-0.5-1.7c0-0.1-0.2-0.1-0.2,0l0.5,1.7
						C265.9,90.5,266.1,90.5,266.1,90.3z"/>
					<path fill-rule="evenodd" clip-rule="evenodd" fill="#54A640" d="M266,90.4l1.7-0.5c0.1,0,0.1-0.2,0-0.2l-1.7,0.5
						C265.8,90.3,265.9,90.5,266,90.4z"/>
					<path fill-rule="evenodd" clip-rule="evenodd" fill="#54A640" d="M265,92l-0.7-2.5c0-0.1-0.2-0.1-0.2,0l0.7,2.5
						C264.9,92.2,265.1,92.1,265,92z"/>
					<path fill-rule="evenodd" clip-rule="evenodd" fill="#54A640" d="M265,92.2l2.5-0.7c0.1,0,0.1-0.2,0-0.2L265,92
						C264.9,92,264.9,92.2,265,92.2z"/>
					<path fill-rule="evenodd" clip-rule="evenodd" fill="#54A640" d="M264,93.8l-0.6-2.7c0-0.1-0.2-0.1-0.2,0l0.6,2.7
						C263.9,93.9,264.1,93.9,264,93.8z"/>
					<path fill-rule="evenodd" clip-rule="evenodd" fill="#54A640" d="M264,93.9l2.7-0.6c0.1,0,0.1-0.2,0-0.2l-2.7,0.6
						C263.9,93.7,263.9,93.9,264,93.9z"/>
				</g>
				<g>
					<path fill-rule="evenodd" clip-rule="evenodd" fill="#8BC53F" d="M259.1,68.2c13.3,0,15.5,3.5,15.5,15.5
						C262.6,83.8,259.1,81.5,259.1,68.2z"/>
					<path fill-rule="evenodd" clip-rule="evenodd" fill="#54A640" d="M276.9,86.6l-15.3-15.3c-0.3-0.4,0.2-0.9,0.5-0.5L277.4,86
						C277.8,86.4,277.2,86.9,276.9,86.6z"/>
					<path fill-rule="evenodd" clip-rule="evenodd" fill="#54A640" d="M264.6,74l0-4.3c0-0.3,0.5-0.3,0.5,0V74
						C265.1,74.3,264.6,74.3,264.6,74z"/>
					<path fill-rule="evenodd" clip-rule="evenodd" fill="#54A640" d="M264.8,74.2l-4.3,0c-0.3,0-0.3-0.5,0-0.5h4.3
						C265.1,73.7,265.1,74.2,264.8,74.2z"/>
					<path fill-rule="evenodd" clip-rule="evenodd" fill="#54A640" d="M268,77.2l0-6.3c0-0.3,0.5-0.3,0.5,0l0,6.3
						C268.5,77.5,268,77.5,268,77.2z"/>
					<path fill-rule="evenodd" clip-rule="evenodd" fill="#54A640" d="M268.1,77.6l-6.3,0c-0.3,0-0.3-0.5,0-0.5l6.3,0
						C268.4,77.1,268.4,77.6,268.1,77.6z"/>
					<path fill-rule="evenodd" clip-rule="evenodd" fill="#54A640" d="M271.3,80.7l-0.1-6.6c0-0.3,0.5-0.3,0.5,0l0.1,6.6
						C271.8,81,271.3,81,271.3,80.7z"/>
					<path fill-rule="evenodd" clip-rule="evenodd" fill="#54A640" d="M271.5,81l-6.6,0.1c-0.3,0-0.3-0.5,0-0.5l6.6-0.1
						C271.8,80.5,271.8,81,271.5,81z"/>
				</g>
				<g>
					<path fill-rule="evenodd" clip-rule="evenodd" fill="#8BC53F" d="M280.9,123.6l-27.9,0.1l-11.2-8.2c-1.4-0.8-2.6-0.1-2.6,1.5
						l0,9.1L225,117c-2.3-1.3-3.9-0.3-3.9,2.2v26.1h59.9L280.9,123.6L280.9,123.6z M233.4,130.4c0.9,0,1.6,0.7,1.6,1.6v4.9
						c0,0.9-0.7,1.6-1.6,1.6h-4.9c-0.9,0-1.6-0.7-1.6-1.6V132c0-0.9,0.7-1.6,1.6-1.6H233.4L233.4,130.4z M247.4,130.4
						c0.9,0,1.6,0.7,1.6,1.6v4.9c0,0.9-0.7,1.6-1.6,1.6h-4.9c-0.9,0-1.6-0.7-1.6-1.6V132c0-0.9,0.7-1.6,1.6-1.6H247.4z"/>
					<path fill-rule="evenodd" clip-rule="evenodd" fill="#8BC53F" d="M280.6,85.6h-3.4c-2.2,0-3.9,1.8-3.9,3.9l-2,55.7h15.2
						l-2-55.7C284.5,87.4,282.8,85.6,280.6,85.6z"/>
					<path fill-rule="evenodd" clip-rule="evenodd" fill="#8BC53F" d="M262.6,95.3h-2.7c-1.7,0-3.1,1.6-3.2,3.6l-1.6,46.5h12.2
						l-1.6-46.5C265.7,96.9,264.3,95.3,262.6,95.3z"/>
				</g>
			</g>
			<g>
				<g>
					<path fill-rule="evenodd" clip-rule="evenodd" fill="#8BC53F" d="M364,95.4c6.8,0,7.9,1.8,7.9,7.9
						C365.8,103.4,364,102.2,364,95.4z"/>
					<path fill-rule="evenodd" clip-rule="evenodd" fill="#54A640" d="M373.1,104.8l-7.8-7.8c-0.2-0.2,0.1-0.4,0.3-0.3l7.8,7.8
						C373.5,104.7,373.3,105,373.1,104.8z"/>
					<path fill-rule="evenodd" clip-rule="evenodd" fill="#54A640" d="M366.8,98.3l0-2.2c0-0.2,0.2-0.2,0.2,0v2.2
						C367,98.5,366.8,98.5,366.8,98.3z"/>
					<path fill-rule="evenodd" clip-rule="evenodd" fill="#54A640" d="M366.9,98.4l-2.2,0c-0.2,0-0.2-0.2,0-0.2h2.2
						C367,98.2,367,98.4,366.9,98.4z"/>
					<path fill-rule="evenodd" clip-rule="evenodd" fill="#54A640" d="M368.5,100v-3.2c0-0.2,0.2-0.2,0.2,0v3.2
						C368.8,100.2,368.5,100.2,368.5,100z"/>
					<path fill-rule="evenodd" clip-rule="evenodd" fill="#54A640" d="M368.6,100.2l-3.2,0c-0.2,0-0.2-0.2,0-0.2h3.2
						C368.7,99.9,368.7,100.2,368.6,100.2z"/>
					<path fill-rule="evenodd" clip-rule="evenodd" fill="#54A640" d="M370.2,101.8l-0.1-3.4c0-0.2,0.2-0.2,0.2,0l0.1,3.4
						C370.5,101.9,370.2,101.9,370.2,101.8z"/>
					<path fill-rule="evenodd" clip-rule="evenodd" fill="#54A640" d="M370.3,101.9L367,102c-0.2,0-0.2-0.2,0-0.2l3.4-0.1
						C370.5,101.7,370.5,101.9,370.3,101.9z"/>
				</g>
				<g>
					<path fill-rule="evenodd" clip-rule="evenodd" fill="#8BC53F" d="M392.2,102.8c-4.9,1.3-5.4,2.8-4.2,7.2
						C392.4,108.8,393.5,107.7,392.2,102.8z"/>
					<path fill-rule="evenodd" clip-rule="evenodd" fill="#54A640" d="M387.5,111.2l4.1-7.1c0.1-0.2-0.2-0.3-0.2-0.1l-4.1,7.1
						C387.1,111.2,387.4,111.4,387.5,111.2z"/>
					<path fill-rule="evenodd" clip-rule="evenodd" fill="#54A640" d="M390.7,105.4l-0.4-1.6c0-0.1-0.2-0.1-0.2,0l0.4,1.6
						C390.6,105.6,390.8,105.5,390.7,105.4z"/>
					<path fill-rule="evenodd" clip-rule="evenodd" fill="#54A640" d="M390.7,105.5l1.6-0.4c0.1,0,0.1-0.2,0-0.2l-1.6,0.4
						C390.5,105.4,390.6,105.5,390.7,105.5z"/>
					<path fill-rule="evenodd" clip-rule="evenodd" fill="#54A640" d="M389.8,106.9l-0.6-2.3c0-0.1-0.2-0.1-0.2,0l0.6,2.3
						C389.7,107.1,389.9,107,389.8,106.9z"/>
					<path fill-rule="evenodd" clip-rule="evenodd" fill="#54A640" d="M389.8,107.1l2.3-0.6c0.1,0,0.1-0.2,0-0.2l-2.3,0.6
						C389.7,106.9,389.7,107.1,389.8,107.1z"/>
					<path fill-rule="evenodd" clip-rule="evenodd" fill="#54A640" d="M388.9,108.5l-0.6-2.4c0-0.1-0.2-0.1-0.2,0l0.6,2.4
						C388.8,108.7,389,108.6,388.9,108.5z"/>
					<path fill-rule="evenodd" clip-rule="evenodd" fill="#54A640" d="M388.9,108.6l2.4-0.6c0.1,0,0.1-0.2,0-0.2l-2.4,0.6
						C388.8,108.5,388.8,108.7,388.9,108.6z"/>
				</g>
				<g>
					<path fill-rule="evenodd" clip-rule="evenodd" fill="#8BC53F" d="M382.2,104.8c3.8,1,4.1,2.2,3.2,5.6
						C382.1,109.4,381.2,108.5,382.2,104.8z"/>
					<path fill-rule="evenodd" clip-rule="evenodd" fill="#54A640" d="M385.9,111.3l-3.2-5.5c-0.1-0.1,0.1-0.2,0.2-0.1l3.2,5.5
						C386.2,111.3,386,111.4,385.9,111.3z"/>
					<path fill-rule="evenodd" clip-rule="evenodd" fill="#54A640" d="M383.4,106.8l0.3-1.2c0-0.1,0.2-0.1,0.1,0l-0.3,1.2
						C383.5,106.9,383.3,106.9,383.4,106.8z"/>
					<path fill-rule="evenodd" clip-rule="evenodd" fill="#54A640" d="M383.4,106.9l-1.2-0.3c-0.1,0-0.1-0.2,0-0.1l1.2,0.3
						C383.5,106.7,383.5,106.9,383.4,106.9z"/>
					<path fill-rule="evenodd" clip-rule="evenodd" fill="#54A640" d="M384.1,108l0.5-1.8c0-0.1,0.2-0.1,0.1,0l-0.5,1.8
						C384.2,108.1,384.1,108.1,384.1,108z"/>
					<path fill-rule="evenodd" clip-rule="evenodd" fill="#54A640" d="M384.1,108.1l-1.8-0.5c-0.1,0-0.1-0.2,0-0.1l1.8,0.5
						C384.2,108,384.2,108.1,384.1,108.1z"/>
					<path fill-rule="evenodd" clip-rule="evenodd" fill="#54A640" d="M384.8,109.2l0.4-1.9c0-0.1,0.2-0.1,0.1,0l-0.4,1.9
						C384.9,109.3,384.8,109.3,384.8,109.2z"/>
					<path fill-rule="evenodd" clip-rule="evenodd" fill="#54A640" d="M384.8,109.3l-1.9-0.4c-0.1,0-0.1-0.2,0-0.1l1.9,0.4
						C384.9,109.2,384.9,109.3,384.8,109.3z"/>
				</g>
				<g>
					<path fill-rule="evenodd" clip-rule="evenodd" fill="#8BC53F" d="M388.3,91.3c-9.3,0-10.9,2.5-10.9,10.9
						C385.8,102.2,388.3,100.6,388.3,91.3z"/>
					<path fill-rule="evenodd" clip-rule="evenodd" fill="#54A640" d="M375.8,104.2l10.7-10.7c0.2-0.2-0.1-0.6-0.4-0.4l-10.7,10.7
						C375.2,104,375.5,104.4,375.8,104.2z"/>
					<path fill-rule="evenodd" clip-rule="evenodd" fill="#54A640" d="M384.4,95.3v-3c0-0.2-0.3-0.2-0.3,0v3
						C384.1,95.5,384.4,95.5,384.4,95.3z"/>
					<path fill-rule="evenodd" clip-rule="evenodd" fill="#54A640" d="M384.3,95.5l3,0c0.2,0,0.2-0.3,0-0.3h-3
						C384.1,95.1,384.1,95.5,384.3,95.5z"/>
					<path fill-rule="evenodd" clip-rule="evenodd" fill="#54A640" d="M382,97.6v-4.4c0-0.2-0.3-0.2-0.3,0v4.4
						C381.7,97.8,382,97.8,382,97.6z"/>
					<path fill-rule="evenodd" clip-rule="evenodd" fill="#54A640" d="M381.9,97.9l4.4,0c0.2,0,0.2-0.3,0-0.3l-4.4,0
						C381.7,97.5,381.7,97.9,381.9,97.9z"/>
					<path fill-rule="evenodd" clip-rule="evenodd" fill="#54A640" d="M379.7,100l0.1-4.6c0-0.2-0.3-0.2-0.3,0l-0.1,4.6
						C379.3,100.2,379.7,100.2,379.7,100z"/>
					<path fill-rule="evenodd" clip-rule="evenodd" fill="#54A640" d="M379.6,100.2l4.6,0.1c0.2,0,0.2-0.3,0-0.3l-4.6-0.1
						C379.4,99.9,379.3,100.2,379.6,100.2z"/>
				</g>
				<g>
					<path fill-rule="evenodd" clip-rule="evenodd" fill="#8BC53F" d="M373,130.1l19.5,0.1l7.9-5.7c1-0.6,1.8,0,1.8,1l0,6.4l9.9-6.4
						c1.6-0.9,2.7-0.2,2.8,1.6v18.3h-41.9L373,130.1L373,130.1z M406.2,134.8c-0.6,0-1.2,0.5-1.2,1.2v3.5c0,0.6,0.5,1.2,1.2,1.2h3.5
						c0.6,0,1.2-0.5,1.2-1.2V136c0-0.6-0.5-1.2-1.2-1.2H406.2L406.2,134.8z M396.4,134.8c-0.6,0-1.2,0.5-1.2,1.2v3.5
						c0,0.6,0.5,1.2,1.2,1.2h3.5c0.6,0,1.2-0.5,1.2-1.2V136c0-0.6-0.5-1.2-1.2-1.2H396.4z"/>
					<path fill-rule="evenodd" clip-rule="evenodd" fill="#8BC53F" d="M373.2,103.5h2.4c1.5,0,2.7,1.2,2.8,2.8l1.4,39H369l1.4-39
						C370.5,104.7,371.6,103.5,373.2,103.5z"/>
					<path fill-rule="evenodd" clip-rule="evenodd" fill="#8BC53F" d="M385.8,110.2h1.9c1.2,0,2.2,1.1,2.2,2.5l1.1,32.6h-8.6
						l1.1-32.6C383.6,111.4,384.6,110.2,385.8,110.2z"/>
				</g>
			</g>
			<g>
				<g>
					<path fill-rule="evenodd" clip-rule="evenodd" fill="#8BC53F" d="M0.9,53.4c6.8,0,7.9,1.8,7.9,7.9C2.7,61.4,0.9,60.2,0.9,53.4z
						"/>
					<path fill-rule="evenodd" clip-rule="evenodd" fill="#54A640" d="M10,62.8L2.2,55c-0.2-0.2,0.1-0.4,0.3-0.3l7.8,7.8
						C10.5,62.7,10.2,63,10,62.8z"/>
					<path fill-rule="evenodd" clip-rule="evenodd" fill="#54A640" d="M3.8,56.3l0-2.2C3.8,54,4,54,4,54.1v2.2
						C4,56.5,3.8,56.5,3.8,56.3z"/>
					<path fill-rule="evenodd" clip-rule="evenodd" fill="#54A640" d="M3.8,56.4l-2.2,0c-0.2,0-0.2-0.2,0-0.2h2.2
						C4,56.2,4,56.4,3.8,56.4z"/>
					<path fill-rule="evenodd" clip-rule="evenodd" fill="#54A640" d="M5.5,58v-3.2c0-0.2,0.2-0.2,0.2,0V58
						C5.7,58.2,5.5,58.2,5.5,58z"/>
					<path fill-rule="evenodd" clip-rule="evenodd" fill="#54A640" d="M5.6,58.2l-3.2,0c-0.2,0-0.2-0.2,0-0.2h3.2
						C5.7,57.9,5.7,58.2,5.6,58.2z"/>
					<path fill-rule="evenodd" clip-rule="evenodd" fill="#54A640" d="M7.2,59.8l-0.1-3.4c0-0.2,0.2-0.2,0.2,0l0.1,3.4
						C7.4,59.9,7.2,59.9,7.2,59.8z"/>
					<path fill-rule="evenodd" clip-rule="evenodd" fill="#54A640" d="M7.3,59.9L3.9,60c-0.2,0-0.2-0.2,0-0.2l3.4-0.1
						C7.4,59.7,7.4,59.9,7.3,59.9z"/>
				</g>
				<g>
					<path fill-rule="evenodd" clip-rule="evenodd" fill="#8BC53F" d="M29.2,60.8c-4.9,1.3-5.4,2.8-4.2,7.2
						C29.4,66.8,30.5,65.7,29.2,60.8z"/>
					<path fill-rule="evenodd" clip-rule="evenodd" fill="#54A640" d="M24.4,69.2l4.1-7.1c0.1-0.2-0.2-0.3-0.2-0.1l-4.1,7.1
						C24.1,69.2,24.3,69.4,24.4,69.2z"/>
					<path fill-rule="evenodd" clip-rule="evenodd" fill="#54A640" d="M27.7,63.4l-0.4-1.6c0-0.1-0.2-0.1-0.2,0l0.4,1.6
						C27.6,63.6,27.7,63.5,27.7,63.4z"/>
					<path fill-rule="evenodd" clip-rule="evenodd" fill="#54A640" d="M27.7,63.5l1.6-0.4c0.1,0,0.1-0.2,0-0.2l-1.6,0.4
						C27.5,63.4,27.6,63.5,27.7,63.5z"/>
					<path fill-rule="evenodd" clip-rule="evenodd" fill="#54A640" d="M26.8,64.9l-0.6-2.3c0-0.1-0.2-0.1-0.2,0l0.6,2.3
						C26.6,65.1,26.8,65,26.8,64.9z"/>
					<path fill-rule="evenodd" clip-rule="evenodd" fill="#54A640" d="M26.8,65.1l2.3-0.6c0.1,0,0.1-0.2,0-0.2l-2.3,0.6
						C26.6,64.9,26.7,65.1,26.8,65.1z"/>
					<path fill-rule="evenodd" clip-rule="evenodd" fill="#54A640" d="M25.9,66.5l-0.6-2.4c0-0.1-0.2-0.1-0.2,0l0.6,2.4
						C25.7,66.7,25.9,66.6,25.9,66.5z"/>
					<path fill-rule="evenodd" clip-rule="evenodd" fill="#54A640" d="M25.9,66.6l2.4-0.6c0.1,0,0.1-0.2,0-0.2l-2.4,0.6
						C25.7,66.5,25.8,66.7,25.9,66.6z"/>
				</g>
				<g>
					<path fill-rule="evenodd" clip-rule="evenodd" fill="#8BC53F" d="M19.2,62.8c3.8,1,4.1,2.2,3.2,5.6
						C19,67.4,18.2,66.5,19.2,62.8z"/>
					<path fill-rule="evenodd" clip-rule="evenodd" fill="#54A640" d="M22.9,69.3l-3.2-5.5c-0.1-0.1,0.1-0.2,0.2-0.1l3.2,5.5
						C23.1,69.3,22.9,69.4,22.9,69.3z"/>
					<path fill-rule="evenodd" clip-rule="evenodd" fill="#54A640" d="M20.3,64.8l0.3-1.2c0-0.1,0.2-0.1,0.1,0l-0.3,1.2
						C20.4,64.9,20.3,64.9,20.3,64.8z"/>
					<path fill-rule="evenodd" clip-rule="evenodd" fill="#54A640" d="M20.4,64.9l-1.2-0.3c-0.1,0-0.1-0.2,0-0.1l1.2,0.3
						C20.5,64.7,20.5,64.9,20.4,64.9z"/>
					<path fill-rule="evenodd" clip-rule="evenodd" fill="#54A640" d="M21,66l0.5-1.8c0-0.1,0.2-0.1,0.1,0L21.2,66
						C21.2,66.1,21,66.1,21,66z"/>
					<path fill-rule="evenodd" clip-rule="evenodd" fill="#54A640" d="M21.1,66.1l-1.8-0.5c-0.1,0-0.1-0.2,0-0.1l1.8,0.5
						C21.2,66,21.1,66.1,21.1,66.1z"/>
					<path fill-rule="evenodd" clip-rule="evenodd" fill="#54A640" d="M21.7,67.2l0.4-1.9c0-0.1,0.2-0.1,0.1,0l-0.4,1.9
						C21.9,67.3,21.7,67.3,21.7,67.2z"/>
					<path fill-rule="evenodd" clip-rule="evenodd" fill="#54A640" d="M21.8,67.3l-1.9-0.4c-0.1,0-0.1-0.2,0-0.1l1.9,0.4
						C21.9,67.2,21.8,67.3,21.8,67.3z"/>
				</g>
				<g>
					<path fill-rule="evenodd" clip-rule="evenodd" fill="#8BC53F" d="M25.2,49.3c-9.3,0-10.9,2.5-10.9,10.9
						C22.8,60.2,25.2,58.6,25.2,49.3z"/>
					<path fill-rule="evenodd" clip-rule="evenodd" fill="#54A640" d="M12.8,62.2l10.7-10.7c0.2-0.2-0.1-0.6-0.4-0.4L12.4,61.8
						C12.1,62,12.5,62.4,12.8,62.2z"/>
					<path fill-rule="evenodd" clip-rule="evenodd" fill="#54A640" d="M21.3,53.3l0-3c0-0.2-0.3-0.2-0.3,0v3
						C21,53.5,21.3,53.5,21.3,53.3z"/>
					<path fill-rule="evenodd" clip-rule="evenodd" fill="#54A640" d="M21.2,53.5l3,0c0.2,0,0.2-0.3,0-0.3h-3
						C21,53.1,21,53.5,21.2,53.5z"/>
					<path fill-rule="evenodd" clip-rule="evenodd" fill="#54A640" d="M19,55.6l0-4.4c0-0.2-0.3-0.2-0.3,0l0,4.4
						C18.7,55.8,19,55.8,19,55.6z"/>
					<path fill-rule="evenodd" clip-rule="evenodd" fill="#54A640" d="M18.9,55.9l4.4,0c0.2,0,0.2-0.3,0-0.3l-4.4,0
						C18.7,55.5,18.7,55.9,18.9,55.9z"/>
					<path fill-rule="evenodd" clip-rule="evenodd" fill="#54A640" d="M16.6,58l0.1-4.6c0-0.2-0.3-0.2-0.3,0L16.3,58
						C16.3,58.2,16.6,58.2,16.6,58z"/>
					<path fill-rule="evenodd" clip-rule="evenodd" fill="#54A640" d="M16.5,58.2l4.6,0.1c0.2,0,0.2-0.3,0-0.3l-4.6-0.1
						C16.3,57.9,16.3,58.2,16.5,58.2z"/>
				</g>
				<g>
					<path fill-rule="evenodd" clip-rule="evenodd" fill="#8BC53F" d="M10,130.1l19.5,0.1l7.9-5.7c1-0.6,1.8,0,1.8,1l0,6.4l9.9-6.4
						c1.6-0.9,2.7-0.2,2.8,1.6v18.3H9.9L10,130.1L10,130.1z M43.2,134.8c-0.6,0-1.2,0.5-1.2,1.2v3.5c0,0.6,0.5,1.2,1.2,1.2h3.5
						c0.6,0,1.2-0.5,1.2-1.2V136c0-0.6-0.5-1.2-1.2-1.2H43.2L43.2,134.8z M33.4,134.8c-0.6,0-1.2,0.5-1.2,1.2v3.5
						c0,0.6,0.5,1.2,1.2,1.2h3.5c0.6,0,1.2-0.5,1.2-1.2V136c0-0.6-0.5-1.2-1.2-1.2H33.4z"/>
					<path fill-rule="evenodd" clip-rule="evenodd" fill="#8BC53F" d="M10.1,61.5h2.4c1.5,0,2.7,1.2,2.8,2.8l1.4,79H5l2.4-79
						C7.4,62.7,8.6,61.5,10.1,61.5z"/>
					<path fill-rule="evenodd" clip-rule="evenodd" fill="#8BC53F" d="M22.8,68.2h1.9c1.2,0,2.2,1.1,2.2,2.5l1.1,72.6h-8.6l1.1-72.6
						C20.6,69.4,21.5,68.2,22.8,68.2z"/>
				</g>
			</g>
			<path fill-rule="evenodd" clip-rule="evenodd" fill="#C3D82E" d="M175.9,22.4l0.1,4.1c0.5,0.3,0.4,0.9,0,1.3l1,64.9l-4.3,0
				l0.6-64.9c0,0,0,0-0.1,0c-0.6-0.5-0.5-1,0.1-1.3l0-3c-0.1,0.1-0.3,0.1-0.4,0.2c-1.4,0.4-3.3-2.4-1-3.7c1.3-0.3,2.3-0.6,3.2-0.8
				c0.3-0.8,0.9-1.2,1.6-1.3l-8.2-13.3c-0.3-0.7,0.6-0.6,0.8-0.1l9.7,11.5c0.4,0.6,0.5,1.5,0.6,2.2c0.4-0.1,0.8-0.2,1.3-0.3
				c3.6-1.7,7.1-3.7,10.7-5.3c0.5-0.3,0.7,0.3,0.5,0.5c-2.4,2.2-5.3,4.3-7.8,6.2c-0.8,0.4-1.7,0.4-2.7,0.5c-0.6,0.3-1.2,0.5-1.7,0.8
				c0.3,0.6,0.9,1.2,0.9,1.9c0.3,6.7,0.4,13.3,0.6,20c0,0.8-1,0.8-1,0c-0.9-7-1.8-12.6-2.7-19.4C177,22.9,176.4,22.7,175.9,22.4
				L175.9,22.4z M177.2,18.7L177.2,18.7L177.2,18.7C177.2,18.7,177.2,18.7,177.2,18.7z"/>
			<g>
				<polygon fill-rule="evenodd" clip-rule="evenodd" fill="#398733" points="203.6,29.2 206.6,38.1 206.6,62.7 203.6,62.7 				"/>
				<g>
					<path fill-rule="evenodd" clip-rule="evenodd" fill="#398733" d="M210.2,44.3c4.3-1.8,8-3.4,11.3-4.8c2.9-1.2,5.6-2.3,7.9-3.3
						c0.5-0.2,0.6-1.1,0.2-2.1c-1.6-4.5-3.2-9-4.7-13.4c-1.5-4.4-3.1-8.7-4.6-13c-0.3-0.9-1-1.7-1.6-1.8c-2.8-0.6-5.9-1.3-9.4-2
						c-3.9-0.8-8.3-1.8-13.3-2.8c-1.1-0.2-1.7,0.6-1.3,1.9c2,6.3,4.1,12.8,6.2,19.3c2.1,6.6,4.3,13.4,6.5,20.2
						C208,43.9,209.2,44.7,210.2,44.3L210.2,44.3z M209.9,41.6c-0.3,0.1-0.7-0.1-0.8-0.6c-2.1-6.4-4.1-12.7-6.1-18.9
						C201,16,199,10,197.1,4.1c-0.1-0.4,0.1-0.7,0.4-0.6c4.7,0.9,8.9,1.6,12.6,2.3c3.3,0.6,6.3,1.2,9,1.7c0.2,0,0.4,0.3,0.5,0.6
						c1.5,4.2,3,8.5,4.5,12.8c1.5,4.3,3.1,8.7,4.6,13.2c0.1,0.3,0.1,0.6-0.1,0.7c-2.3,0.9-4.9,1.8-7.7,2.9
						C217.6,38.7,214,40,209.9,41.6z"/>
					<g>
						<g>
							<g>
								<path fill-rule="evenodd" clip-rule="evenodd" fill="#C9DA2A" d="M210.3,39.7c1.6-0.5,3-1.1,4.4-1.6
									c0.2-0.1,0.3-0.4,0.2-0.7c-0.7-2.1-1.4-4.3-2.1-6.4c-0.1-0.3-0.4-0.5-0.6-0.5c-1.5,0.3-3,0.6-4.6,1
									c-0.2,0.1-0.4,0.4-0.2,0.7c0.8,2.3,1.5,4.6,2.3,7C209.8,39.6,210.1,39.8,210.3,39.7z"/>
								<path fill-rule="evenodd" clip-rule="evenodd" fill="#C9DA2A" d="M216,37.7c1.3-0.5,2.5-0.9,3.7-1.3
									c0.2-0.1,0.2-0.3,0.1-0.6c-0.7-2-1.3-3.9-2-5.9c-0.1-0.3-0.3-0.5-0.5-0.4c-1.2,0.3-2.5,0.5-3.8,0.8c-0.2,0-0.3,0.3-0.2,0.6
									c0.7,2.1,1.4,4.2,2.1,6.4C215.6,37.6,215.8,37.8,216,37.7z"/>
							</g>
							<g>
								<path fill-rule="evenodd" clip-rule="evenodd" fill="#C9DA2A" d="M207.4,30.7c1.6-0.3,3.2-0.6,4.6-0.9
									c0.2,0,0.3-0.3,0.2-0.6c-0.7-2.1-1.4-4.2-2.1-6.3c-0.1-0.3-0.4-0.5-0.6-0.5c-1.5,0.1-3.1,0.2-4.8,0.4
									c-0.2,0-0.4,0.3-0.3,0.6c0.7,2.3,1.5,4.6,2.2,6.9C206.8,30.5,207.1,30.7,207.4,30.7z"/>
								<path fill-rule="evenodd" clip-rule="evenodd" fill="#C9DA2A" d="M213.3,29.5c1.3-0.3,2.6-0.5,3.9-0.8
									c0.2,0,0.2-0.3,0.1-0.6c-0.7-1.9-1.3-3.9-2-5.8c-0.1-0.3-0.3-0.5-0.5-0.5c-1.3,0.1-2.6,0.2-4,0.3c-0.2,0-0.3,0.3-0.2,0.6
									c0.7,2.1,1.4,4.2,2.1,6.2C212.8,29.3,213.1,29.5,213.3,29.5z"/>
							</g>
						</g>
						<g>
							<g>
								<path fill-rule="evenodd" clip-rule="evenodd" fill="#C9DA2A" d="M204.4,21.4c1.7-0.1,3.2-0.2,4.8-0.3
									c0.2,0,0.3-0.3,0.2-0.6c-0.7-2.1-1.4-4.1-2-6.1c-0.1-0.3-0.4-0.6-0.6-0.6c-1.6-0.1-3.2-0.2-4.9-0.3c-0.3,0-0.4,0.2-0.3,0.6
									c0.7,2.2,1.4,4.4,2.2,6.7C203.8,21.1,204.1,21.4,204.4,21.4z"/>
								<path fill-rule="evenodd" clip-rule="evenodd" fill="#C9DA2A" d="M210.5,21c1.4-0.1,2.7-0.2,4-0.2c0.2,0,0.3-0.2,0.2-0.5
									c-0.6-1.9-1.3-3.8-1.9-5.7c-0.1-0.3-0.3-0.5-0.5-0.5c-1.3-0.1-2.7-0.1-4.1-0.2c-0.2,0-0.3,0.2-0.2,0.5c0.7,2,1.4,4.1,2,6.1
									C210,20.8,210.3,21,210.5,21z"/>
							</g>
							<g>
								<path fill-rule="evenodd" clip-rule="evenodd" fill="#C9DA2A" d="M201.5,12.7c1.7,0.1,3.4,0.2,4.9,0.3
									c0.2,0,0.3-0.2,0.2-0.5c-0.7-2-1.3-4-2-6c-0.1-0.3-0.4-0.6-0.6-0.6c-1.6-0.3-3.3-0.5-5.1-0.8c-0.3,0-0.4,0.2-0.3,0.5
									c0.7,2.2,1.4,4.4,2.1,6.6C200.9,12.4,201.2,12.7,201.5,12.7z"/>
								<path fill-rule="evenodd" clip-rule="evenodd" fill="#C9DA2A" d="M207.8,13.1c1.4,0.1,2.8,0.2,4.1,0.3
									c0.2,0,0.3-0.2,0.2-0.5c-0.6-1.8-1.3-3.7-1.9-5.5c-0.1-0.3-0.3-0.5-0.5-0.6c-1.4-0.2-2.8-0.5-4.2-0.7
									c-0.2,0-0.3,0.2-0.2,0.5c0.7,2,1.3,4,2,6C207.3,12.8,207.6,13.1,207.8,13.1z"/>
							</g>
						</g>
						<g>
							<g>
								<path fill-rule="evenodd" clip-rule="evenodd" fill="#C9DA2A" d="M221,36c1.1-0.4,2.1-0.7,3.1-1.1c0.1-0.1,0.2-0.3,0.1-0.6
									c-0.6-1.8-1.2-3.6-1.8-5.4c-0.1-0.3-0.3-0.5-0.4-0.4c-1,0.2-2.1,0.4-3.2,0.7c-0.2,0-0.2,0.3-0.1,0.6c0.6,1.9,1.3,3.8,2,5.8
									C220.6,35.8,220.8,36,221,36z"/>
								<path fill-rule="evenodd" clip-rule="evenodd" fill="#C9DA2A" d="M225,34.6c0.9-0.3,1.8-0.6,2.7-0.9c0.1,0,0.2-0.3,0.1-0.5
									c-0.6-1.7-1.2-3.3-1.7-5c-0.1-0.2-0.3-0.4-0.4-0.4c-0.9,0.2-1.8,0.4-2.8,0.6c-0.1,0-0.2,0.3-0.1,0.5
									c0.6,1.8,1.2,3.6,1.8,5.3C224.7,34.4,224.9,34.6,225,34.6z"/>
							</g>
							<g>
								<path fill-rule="evenodd" clip-rule="evenodd" fill="#C9DA2A" d="M218.4,28.4c1.1-0.2,2.2-0.4,3.2-0.6
									c0.1,0,0.2-0.3,0.1-0.5c-0.6-1.8-1.2-3.5-1.8-5.3c-0.1-0.3-0.3-0.5-0.4-0.4c-1.1,0.1-2.2,0.2-3.4,0.2
									c-0.2,0-0.2,0.2-0.1,0.5c0.6,1.9,1.3,3.8,1.9,5.7C218.1,28.3,218.3,28.5,218.4,28.4z"/>
								<path fill-rule="evenodd" clip-rule="evenodd" fill="#C9DA2A" d="M222.6,27.6c1-0.2,1.9-0.4,2.8-0.5c0.1,0,0.2-0.2,0.1-0.5
									c-0.6-1.6-1.1-3.3-1.7-4.9c-0.1-0.2-0.3-0.4-0.4-0.4c-0.9,0.1-1.9,0.1-2.9,0.2c-0.1,0-0.2,0.2-0.1,0.5
									c0.6,1.7,1.2,3.5,1.8,5.3C222.3,27.5,222.5,27.7,222.6,27.6z"/>
							</g>
						</g>
						<g>
							<g>
								<path fill-rule="evenodd" clip-rule="evenodd" fill="#C9DA2A" d="M215.8,20.7c1.2-0.1,2.3-0.1,3.4-0.2
									c0.2,0,0.2-0.2,0.1-0.5c-0.6-1.7-1.2-3.5-1.8-5.2c-0.1-0.3-0.3-0.5-0.5-0.5c-1.1-0.1-2.3-0.1-3.5-0.2
									c-0.2,0-0.3,0.2-0.2,0.5c0.6,1.8,1.3,3.7,1.9,5.6C215.4,20.5,215.7,20.7,215.8,20.7z"/>
								<path fill-rule="evenodd" clip-rule="evenodd" fill="#C9DA2A" d="M220.2,20.5c1-0.1,2-0.1,2.9-0.2c0.1,0,0.2-0.2,0.1-0.4
									c-0.6-1.6-1.1-3.2-1.7-4.8c-0.1-0.2-0.3-0.4-0.4-0.4c-1-0.1-2-0.1-3-0.2c-0.2,0-0.2,0.2-0.1,0.4c0.6,1.7,1.2,3.4,1.8,5.2
									C219.8,20.3,220,20.5,220.2,20.5z"/>
							</g>
							<g>
								<path fill-rule="evenodd" clip-rule="evenodd" fill="#C9DA2A" d="M213.4,13.5c1.2,0.1,2.4,0.2,3.5,0.2
									c0.2,0,0.2-0.2,0.1-0.4c-0.6-1.7-1.2-3.4-1.8-5.1c-0.1-0.2-0.3-0.5-0.5-0.5c-1.2-0.2-2.4-0.4-3.6-0.6
									c-0.2,0-0.3,0.2-0.2,0.4c0.6,1.8,1.2,3.7,1.9,5.5C212.9,13.2,213.2,13.5,213.4,13.5z"/>
								<path fill-rule="evenodd" clip-rule="evenodd" fill="#C9DA2A" d="M217.8,13.8c1,0.1,2,0.1,3,0.2c0.1,0,0.2-0.2,0.1-0.4
									c-0.6-1.6-1.1-3.2-1.7-4.8c-0.1-0.2-0.3-0.4-0.4-0.5c-1-0.2-2-0.3-3.1-0.5c-0.2,0-0.2,0.1-0.1,0.4c0.6,1.7,1.2,3.4,1.8,5.1
									C217.5,13.5,217.7,13.8,217.8,13.8z"/>
							</g>
						</g>
					</g>
				</g>
			</g>
			<g>
				<polygon fill-rule="evenodd" clip-rule="evenodd" fill="#398733" points="324.8,48.3 326.6,54 326.6,69.8 324.8,69.8 				"/>
				<g>
					<path fill-rule="evenodd" clip-rule="evenodd" fill="#398733" d="M328.9,58c2.7-1.2,5.1-2.2,7.3-3.1c1.9-0.8,3.6-1.5,5.1-2.1
						c0.3-0.1,0.4-0.7,0.1-1.3c-1-2.9-2-5.8-3-8.6c-1-2.8-2-5.6-2.9-8.3c-0.2-0.6-0.6-1.1-1-1.2c-1.8-0.4-3.8-0.8-6-1.3
						c-2.5-0.5-5.3-1.1-8.5-1.8c-0.7-0.2-1.1,0.4-0.8,1.2c1.3,4.1,2.6,8.2,4,12.3c1.4,4.2,2.8,8.5,4.2,12.9
						C327.5,57.7,328.3,58.3,328.9,58L328.9,58z M328.7,56.3c-0.2,0.1-0.4-0.1-0.5-0.4c-1.3-4.1-2.6-8.1-3.9-12.1
						c-1.3-3.9-2.5-7.8-3.8-11.6c-0.1-0.3,0-0.4,0.3-0.4c3,0.6,5.7,1,8.1,1.5c2.1,0.4,4,0.7,5.8,1.1c0.1,0,0.3,0.2,0.3,0.4
						c0.9,2.7,1.9,5.4,2.9,8.2c1,2.8,2,5.6,2.9,8.4c0.1,0.2,0,0.4,0,0.4c-1.5,0.6-3.1,1.2-5,1.9C333.7,54.4,331.4,55.3,328.7,56.3z"
						/>
					<g>
						<g>
							<g>
								<path fill-rule="evenodd" clip-rule="evenodd" fill="#C9DA2A" d="M329,55.1c1-0.3,1.9-0.7,2.8-1c0.1,0,0.2-0.3,0.1-0.5
									c-0.5-1.4-0.9-2.7-1.4-4.1c-0.1-0.2-0.2-0.3-0.4-0.3c-0.9,0.2-1.9,0.4-2.9,0.6c-0.2,0-0.2,0.2-0.2,0.5c0.5,1.5,1,3,1.5,4.5
									C328.7,55,328.9,55.1,329,55.1z"/>
								<path fill-rule="evenodd" clip-rule="evenodd" fill="#C9DA2A" d="M332.7,53.8c0.8-0.3,1.6-0.6,2.4-0.8
									c0.1,0,0.1-0.2,0.1-0.4c-0.4-1.3-0.8-2.5-1.3-3.8c-0.1-0.2-0.2-0.3-0.3-0.3c-0.8,0.2-1.6,0.3-2.5,0.5
									c-0.1,0-0.2,0.2-0.1,0.4c0.4,1.3,0.9,2.7,1.4,4.1C332.4,53.7,332.6,53.8,332.7,53.8z"/>
							</g>
							<g>
								<path fill-rule="evenodd" clip-rule="evenodd" fill="#C9DA2A" d="M327.1,49.3c1-0.2,2-0.4,3-0.6c0.1,0,0.2-0.2,0.1-0.4
									c-0.4-1.4-0.9-2.7-1.3-4c-0.1-0.2-0.2-0.3-0.4-0.3c-1,0.1-2,0.2-3.1,0.2c-0.2,0-0.2,0.2-0.2,0.4c0.5,1.5,1,2.9,1.4,4.4
									C326.8,49.2,327,49.3,327.1,49.3z"/>
								<path fill-rule="evenodd" clip-rule="evenodd" fill="#C9DA2A" d="M330.9,48.5c0.9-0.2,1.7-0.3,2.5-0.5
									c0.1,0,0.2-0.2,0.1-0.4c-0.4-1.2-0.8-2.5-1.3-3.7c-0.1-0.2-0.2-0.3-0.3-0.3c-0.8,0.1-1.7,0.1-2.6,0.2
									c-0.1,0-0.2,0.2-0.1,0.4c0.4,1.3,0.9,2.7,1.3,4C330.6,48.4,330.8,48.5,330.9,48.5z"/>
							</g>
						</g>
						<g>
							<g>
								<path fill-rule="evenodd" clip-rule="evenodd" fill="#C9DA2A" d="M325.2,43.3c1.1-0.1,2.1-0.1,3-0.2c0.1,0,0.2-0.2,0.1-0.4
									c-0.4-1.3-0.9-2.6-1.3-3.9c-0.1-0.2-0.2-0.4-0.4-0.4c-1-0.1-2-0.1-3.1-0.2c-0.2,0-0.3,0.2-0.2,0.4c0.5,1.4,0.9,2.8,1.4,4.3
									C324.8,43.2,325,43.4,325.2,43.3z"/>
								<path fill-rule="evenodd" clip-rule="evenodd" fill="#C9DA2A" d="M329.1,43.1c0.9-0.1,1.7-0.1,2.6-0.1
									c0.1,0,0.2-0.2,0.1-0.3c-0.4-1.2-0.8-2.4-1.2-3.6c-0.1-0.2-0.2-0.3-0.3-0.3c-0.8,0-1.7-0.1-2.6-0.1c-0.1,0-0.2,0.1-0.1,0.3
									c0.4,1.3,0.9,2.6,1.3,3.9C328.8,43,329,43.1,329.1,43.1z"/>
							</g>
							<g>
								<path fill-rule="evenodd" clip-rule="evenodd" fill="#C9DA2A" d="M323.4,37.8c1.1,0.1,2.2,0.1,3.2,0.2
									c0.1,0,0.2-0.1,0.1-0.3c-0.4-1.3-0.9-2.6-1.3-3.9c-0.1-0.2-0.2-0.4-0.4-0.4c-1-0.2-2.1-0.3-3.2-0.5c-0.2,0-0.3,0.1-0.2,0.3
									c0.5,1.4,0.9,2.8,1.4,4.2C323,37.6,323.2,37.8,323.4,37.8z"/>
								<path fill-rule="evenodd" clip-rule="evenodd" fill="#C9DA2A" d="M327.4,38.1c0.9,0.1,1.8,0.1,2.6,0.2
									c0.1,0,0.2-0.1,0.1-0.3c-0.4-1.2-0.8-2.4-1.2-3.5c-0.1-0.2-0.2-0.3-0.3-0.4c-0.9-0.1-1.8-0.3-2.7-0.4
									c-0.1,0-0.2,0.1-0.2,0.3c0.4,1.3,0.8,2.5,1.3,3.8C327.1,37.9,327.3,38,327.4,38.1z"/>
							</g>
						</g>
						<g>
							<g>
								<path fill-rule="evenodd" clip-rule="evenodd" fill="#C9DA2A" d="M335.9,52.7c0.7-0.2,1.4-0.5,2-0.7c0.1,0,0.1-0.2,0.1-0.4
									c-0.4-1.1-0.8-2.3-1.2-3.4c-0.1-0.2-0.2-0.3-0.3-0.3c-0.7,0.1-1.3,0.3-2.1,0.4c-0.1,0-0.2,0.2-0.1,0.4
									c0.4,1.2,0.8,2.4,1.3,3.7C335.6,52.6,335.8,52.7,335.9,52.7z"/>
								<path fill-rule="evenodd" clip-rule="evenodd" fill="#C9DA2A" d="M338.4,51.8c0.6-0.2,1.2-0.4,1.7-0.6c0.1,0,0.1-0.2,0-0.3
									c-0.4-1.1-0.7-2.1-1.1-3.2c-0.1-0.2-0.2-0.3-0.2-0.3c-0.6,0.1-1.2,0.2-1.8,0.4c-0.1,0-0.1,0.2-0.1,0.3
									c0.4,1.1,0.8,2.3,1.2,3.4C338.2,51.7,338.3,51.8,338.4,51.8z"/>
							</g>
							<g>
								<path fill-rule="evenodd" clip-rule="evenodd" fill="#C9DA2A" d="M334.2,47.9c0.7-0.1,1.4-0.3,2.1-0.4
									c0.1,0,0.1-0.2,0.1-0.3c-0.4-1.1-0.8-2.3-1.2-3.4c-0.1-0.2-0.2-0.3-0.3-0.3c-0.7,0.1-1.4,0.1-2.1,0.2
									c-0.1,0-0.2,0.2-0.1,0.3c0.4,1.2,0.8,2.4,1.2,3.6C334,47.8,334.1,47.9,334.2,47.9z"/>
								<path fill-rule="evenodd" clip-rule="evenodd" fill="#C9DA2A" d="M336.9,47.3c0.6-0.1,1.2-0.2,1.8-0.4
									c0.1,0,0.1-0.2,0.1-0.3c-0.4-1.1-0.7-2.1-1.1-3.1c-0.1-0.2-0.2-0.3-0.3-0.3c-0.6,0-1.2,0.1-1.8,0.1c-0.1,0-0.1,0.1-0.1,0.3
									c0.4,1.1,0.8,2.2,1.2,3.4C336.7,47.2,336.8,47.4,336.9,47.3z"/>
							</g>
						</g>
						<g>
							<g>
								<path fill-rule="evenodd" clip-rule="evenodd" fill="#C9DA2A" d="M332.6,42.9c0.7,0,1.5-0.1,2.1-0.1c0.1,0,0.1-0.1,0.1-0.3
									c-0.4-1.1-0.8-2.2-1.1-3.3c-0.1-0.2-0.2-0.3-0.3-0.3c-0.7,0-1.4-0.1-2.2-0.1c-0.1,0-0.2,0.1-0.1,0.3
									c0.4,1.2,0.8,2.4,1.2,3.6C332.3,42.8,332.4,42.9,332.6,42.9z"/>
								<path fill-rule="evenodd" clip-rule="evenodd" fill="#C9DA2A" d="M335.3,42.8c0.6,0,1.3-0.1,1.9-0.1c0.1,0,0.1-0.1,0.1-0.3
									c-0.4-1-0.7-2.1-1.1-3.1c-0.1-0.1-0.2-0.3-0.3-0.3c-0.6,0-1.3-0.1-1.9-0.1c-0.1,0-0.1,0.1-0.1,0.3c0.4,1.1,0.8,2.2,1.1,3.3
									C335.1,42.6,335.2,42.8,335.3,42.8z"/>
							</g>
							<g>
								<path fill-rule="evenodd" clip-rule="evenodd" fill="#C9DA2A" d="M331,38.3c0.8,0.1,1.5,0.1,2.2,0.1c0.1,0,0.1-0.1,0.1-0.3
									c-0.4-1.1-0.8-2.2-1.1-3.3c-0.1-0.2-0.2-0.3-0.3-0.3c-0.7-0.1-1.5-0.2-2.3-0.4c-0.1,0-0.2,0.1-0.1,0.3
									c0.4,1.2,0.8,2.3,1.2,3.5C330.7,38.1,330.8,38.3,331,38.3z"/>
								<path fill-rule="evenodd" clip-rule="evenodd" fill="#C9DA2A" d="M333.8,38.5c0.7,0,1.3,0.1,1.9,0.1c0.1,0,0.1-0.1,0.1-0.3
									c-0.4-1-0.7-2-1.1-3.1c-0.1-0.1-0.2-0.3-0.3-0.3c-0.6-0.1-1.3-0.2-2-0.3c-0.1,0-0.1,0.1-0.1,0.3c0.4,1.1,0.7,2.2,1.1,3.3
									C333.6,38.3,333.7,38.5,333.8,38.5z"/>
							</g>
						</g>
					</g>
				</g>
			</g>
			<g>
				<polygon fill-rule="evenodd" clip-rule="evenodd" fill="#398733" points="133.3,42.6 132,47 132,133.5 133.3,133.5 				"/>
				<g>
					<path fill-rule="evenodd" clip-rule="evenodd" fill="#398733" d="M130.3,49.6c-2-0.8-3.7-1.6-5.2-2.2c-1.4-0.6-2.6-1.1-3.7-1.5
						c-0.2-0.1-0.3-0.5-0.1-1c0.7-2.1,1.5-4.2,2.2-6.2c0.7-2,1.4-4,2.1-6c0.1-0.4,0.5-0.8,0.7-0.8c1.3-0.3,2.7-0.6,4.3-0.9
						c1.8-0.4,3.8-0.8,6.1-1.3c0.5-0.1,0.8,0.3,0.6,0.9c-0.9,2.9-1.9,5.9-2.9,8.9c-1,3.1-2,6.2-3,9.3
						C131.3,49.4,130.8,49.7,130.3,49.6L130.3,49.6z M130.4,48.3c0.1,0.1,0.3-0.1,0.4-0.3c1-2.9,1.9-5.9,2.8-8.7
						c0.9-2.8,1.8-5.6,2.7-8.4c0.1-0.2,0-0.3-0.2-0.3c-2.2,0.4-4.1,0.8-5.8,1.1c-1.5,0.3-2.9,0.5-4.2,0.8c-0.1,0-0.2,0.1-0.2,0.3
						c-0.7,1.9-1.4,3.9-2.1,5.9c-0.7,2-1.4,4-2.1,6.1c0,0.1,0,0.3,0,0.3c1.1,0.4,2.3,0.9,3.6,1.3C126.9,46.9,128.5,47.6,130.4,48.3z
						"/>
					<g>
						<g>
							<g>
								<path fill-rule="evenodd" clip-rule="evenodd" fill="#C9DA2A" d="M130.2,47.4c-0.7-0.3-1.4-0.5-2.1-0.7
									c-0.1,0-0.1-0.2-0.1-0.3c0.3-1,0.7-2,1-2.9c0-0.1,0.2-0.2,0.3-0.2c0.7,0.1,1.4,0.3,2.1,0.5c0.1,0,0.2,0.2,0.1,0.3
									c-0.3,1.1-0.7,2.1-1,3.2C130.5,47.4,130.3,47.5,130.2,47.4z"/>
								<path fill-rule="evenodd" clip-rule="evenodd" fill="#C9DA2A" d="M127.6,46.5c-0.6-0.2-1.2-0.4-1.7-0.6
									c-0.1,0-0.1-0.2-0.1-0.3c0.3-0.9,0.6-1.8,0.9-2.7c0-0.1,0.1-0.2,0.2-0.2c0.6,0.1,1.2,0.2,1.8,0.4c0.1,0,0.1,0.2,0.1,0.3
									c-0.3,1-0.6,2-1,2.9C127.8,46.4,127.7,46.5,127.6,46.5z"/>
							</g>
							<g>
								<path fill-rule="evenodd" clip-rule="evenodd" fill="#C9DA2A" d="M131.6,43.2c-0.8-0.2-1.5-0.3-2.1-0.4
									c-0.1,0-0.1-0.1-0.1-0.3c0.3-1,0.6-1.9,1-2.9c0-0.1,0.2-0.2,0.3-0.2c0.7,0.1,1.4,0.1,2.2,0.2c0.1,0,0.2,0.1,0.1,0.3
									c-0.3,1.1-0.7,2.1-1,3.2C131.9,43.2,131.7,43.3,131.6,43.2z"/>
								<path fill-rule="evenodd" clip-rule="evenodd" fill="#C9DA2A" d="M128.9,42.7c-0.6-0.1-1.2-0.2-1.8-0.4
									c-0.1,0-0.1-0.1-0.1-0.3c0.3-0.9,0.6-1.8,0.9-2.7c0-0.1,0.1-0.2,0.2-0.2c0.6,0,1.2,0.1,1.8,0.1c0.1,0,0.1,0.1,0.1,0.3
									c-0.3,1-0.6,1.9-1,2.9C129.1,42.6,129,42.7,128.9,42.7z"/>
							</g>
						</g>
						<g>
							<g>
								<path fill-rule="evenodd" clip-rule="evenodd" fill="#C9DA2A" d="M133,39c-0.8,0-1.5-0.1-2.2-0.1c-0.1,0-0.1-0.1-0.1-0.3
									c0.3-0.9,0.6-1.9,0.9-2.8c0-0.1,0.2-0.3,0.3-0.3c0.7,0,1.5-0.1,2.3-0.1c0.1,0,0.2,0.1,0.1,0.3c-0.3,1-0.7,2-1,3.1
									C133.3,38.8,133.1,39,133,39z"/>
								<path fill-rule="evenodd" clip-rule="evenodd" fill="#C9DA2A" d="M130.2,38.8c-0.6,0-1.3-0.1-1.9-0.1
									c-0.1,0-0.1-0.1-0.1-0.2c0.3-0.9,0.6-1.7,0.9-2.6c0-0.1,0.1-0.2,0.2-0.2c0.6,0,1.2-0.1,1.9-0.1c0.1,0,0.1,0.1,0.1,0.2
									c-0.3,0.9-0.6,1.9-0.9,2.8C130.4,38.7,130.3,38.8,130.2,38.8z"/>
							</g>
							<g>
								<path fill-rule="evenodd" clip-rule="evenodd" fill="#C9DA2A" d="M134.3,34.9c-0.8,0.1-1.6,0.1-2.3,0.1
									c-0.1,0-0.2-0.1-0.1-0.2c0.3-0.9,0.6-1.9,0.9-2.8c0-0.1,0.2-0.3,0.3-0.3c0.7-0.1,1.5-0.3,2.3-0.4c0.1,0,0.2,0.1,0.1,0.2
									c-0.3,1-0.7,2-1,3C134.6,34.8,134.4,34.9,134.3,34.9z"/>
								<path fill-rule="evenodd" clip-rule="evenodd" fill="#C9DA2A" d="M131.4,35.1c-0.7,0-1.3,0.1-1.9,0.1
									c-0.1,0-0.1-0.1-0.1-0.2c0.3-0.9,0.6-1.7,0.9-2.5c0-0.1,0.2-0.2,0.2-0.3c0.6-0.1,1.3-0.2,2-0.3c0.1,0,0.2,0.1,0.1,0.2
									c-0.3,0.9-0.6,1.8-0.9,2.8C131.6,35,131.5,35.1,131.4,35.1z"/>
							</g>
						</g>
						<g>
							<g>
								<path fill-rule="evenodd" clip-rule="evenodd" fill="#C9DA2A" d="M125.3,45.7c-0.5-0.2-1-0.3-1.4-0.5c-0.1,0-0.1-0.1,0-0.3
									c0.3-0.8,0.6-1.7,0.9-2.5c0-0.1,0.1-0.2,0.2-0.2c0.5,0.1,1,0.2,1.5,0.3c0.1,0,0.1,0.1,0.1,0.3c-0.3,0.9-0.6,1.8-0.9,2.7
									C125.5,45.6,125.4,45.7,125.3,45.7z"/>
								<path fill-rule="evenodd" clip-rule="evenodd" fill="#C9DA2A" d="M123.5,45c-0.4-0.1-0.8-0.3-1.2-0.4c-0.1,0-0.1-0.1,0-0.2
									c0.3-0.8,0.5-1.5,0.8-2.3c0-0.1,0.1-0.2,0.2-0.2c0.4,0.1,0.8,0.2,1.3,0.3c0.1,0,0.1,0.1,0,0.2c-0.3,0.8-0.6,1.6-0.9,2.5
									C123.6,45,123.5,45.1,123.5,45z"/>
							</g>
							<g>
								<path fill-rule="evenodd" clip-rule="evenodd" fill="#C9DA2A" d="M126.5,42.2c-0.5-0.1-1-0.2-1.5-0.3c-0.1,0-0.1-0.1,0-0.2
									c0.3-0.8,0.6-1.6,0.8-2.5c0-0.1,0.1-0.2,0.2-0.2c0.5,0,1,0.1,1.6,0.1c0.1,0,0.1,0.1,0.1,0.2c-0.3,0.9-0.6,1.7-0.9,2.6
									C126.7,42.1,126.6,42.2,126.5,42.2z"/>
								<path fill-rule="evenodd" clip-rule="evenodd" fill="#C9DA2A" d="M124.6,41.8c-0.4-0.1-0.9-0.2-1.3-0.3
									c-0.1,0-0.1-0.1,0-0.2c0.3-0.8,0.5-1.5,0.8-2.3c0-0.1,0.1-0.2,0.2-0.2c0.4,0,0.9,0.1,1.3,0.1c0.1,0,0.1,0.1,0.1,0.2
									c-0.3,0.8-0.6,1.6-0.8,2.4C124.7,41.8,124.6,41.9,124.6,41.8z"/>
							</g>
						</g>
						<g>
							<g>
								<path fill-rule="evenodd" clip-rule="evenodd" fill="#C9DA2A" d="M127.7,38.7c-0.5,0-1.1-0.1-1.5-0.1
									c-0.1,0-0.1-0.1-0.1-0.2c0.3-0.8,0.6-1.6,0.8-2.4c0-0.1,0.1-0.2,0.2-0.2c0.5,0,1-0.1,1.6-0.1c0.1,0,0.1,0.1,0.1,0.2
									c-0.3,0.9-0.6,1.7-0.9,2.6C127.9,38.6,127.8,38.7,127.7,38.7z"/>
								<path fill-rule="evenodd" clip-rule="evenodd" fill="#C9DA2A" d="M125.7,38.5c-0.5,0-0.9-0.1-1.3-0.1c-0.1,0-0.1-0.1,0-0.2
									c0.3-0.7,0.5-1.5,0.8-2.2c0-0.1,0.1-0.2,0.2-0.2c0.4,0,0.9-0.1,1.4-0.1c0.1,0,0.1,0.1,0.1,0.2c-0.3,0.8-0.5,1.6-0.8,2.4
									C125.9,38.5,125.8,38.5,125.7,38.5z"/>
							</g>
							<g>
								<path fill-rule="evenodd" clip-rule="evenodd" fill="#C9DA2A" d="M128.8,35.3c-0.6,0-1.1,0.1-1.6,0.1
									c-0.1,0-0.1-0.1-0.1-0.2c0.3-0.8,0.5-1.6,0.8-2.4c0-0.1,0.1-0.2,0.2-0.2c0.5-0.1,1.1-0.2,1.7-0.3c0.1,0,0.1,0.1,0.1,0.2
									c-0.3,0.8-0.6,1.7-0.9,2.5C129,35.2,128.9,35.3,128.8,35.3z"/>
								<path fill-rule="evenodd" clip-rule="evenodd" fill="#C9DA2A" d="M126.8,35.4c-0.5,0-0.9,0.1-1.4,0.1c-0.1,0-0.1-0.1,0-0.2
									c0.3-0.7,0.5-1.5,0.8-2.2c0-0.1,0.1-0.2,0.2-0.2c0.5-0.1,0.9-0.2,1.4-0.2c0.1,0,0.1,0.1,0.1,0.2c-0.3,0.8-0.5,1.6-0.8,2.3
									C126.9,35.3,126.8,35.4,126.8,35.4z"/>
							</g>
						</g>
					</g>
				</g>
			</g>
			<g>
				<polygon fill-rule="evenodd" clip-rule="evenodd" fill="#398733" points="86.3,32 84.8,36.6 84.8,89.4 86.3,89.4 				"/>
				<g>
					<path fill-rule="evenodd" clip-rule="evenodd" fill="#398733" d="M83,39.7c-2.2-0.9-4.1-1.7-5.7-2.4c-1.5-0.6-2.8-1.2-4-1.7
						c-0.2-0.1-0.3-0.6-0.1-1c0.8-2.3,1.6-4.6,2.4-6.8c0.8-2.2,1.6-4.4,2.3-6.6c0.2-0.4,0.5-0.9,0.8-0.9c1.4-0.3,3-0.6,4.8-1
						c2-0.4,4.2-0.9,6.7-1.4c0.6-0.1,0.9,0.3,0.7,1c-1,3.2-2.1,6.5-3.2,9.8c-1.1,3.4-2.2,6.8-3.3,10.2C84.1,39.5,83.5,39.9,83,39.7
						L83,39.7z M83.1,38.3c0.1,0.1,0.3-0.1,0.4-0.3c1-3.2,2.1-6.4,3.1-9.6c1-3.1,2-6.1,3-9.2c0.1-0.2,0-0.3-0.2-0.3
						c-2.4,0.4-4.5,0.8-6.4,1.2c-1.7,0.3-3.2,0.6-4.6,0.8c-0.1,0-0.2,0.1-0.3,0.3c-0.7,2.1-1.5,4.3-2.3,6.5
						c-0.8,2.2-1.5,4.4-2.3,6.7c-0.1,0.2,0,0.3,0,0.3c1.2,0.4,2.5,0.9,3.9,1.5C79.2,36.9,81,37.5,83.1,38.3z"/>
					<g>
						<g>
							<g>
								<path fill-rule="evenodd" clip-rule="evenodd" fill="#C9DA2A" d="M82.9,37.4c-0.8-0.3-1.5-0.5-2.3-0.8
									c-0.1,0-0.1-0.2-0.1-0.4c0.4-1.1,0.7-2.2,1.1-3.2c0.1-0.2,0.2-0.3,0.3-0.2c0.7,0.2,1.5,0.3,2.3,0.5c0.1,0,0.2,0.2,0.1,0.4
									c-0.4,1.2-0.8,2.3-1.2,3.5C83.1,37.3,83,37.4,82.9,37.4z"/>
								<path fill-rule="evenodd" clip-rule="evenodd" fill="#C9DA2A" d="M80,36.4c-0.7-0.2-1.3-0.4-1.9-0.7c-0.1,0-0.1-0.2-0.1-0.3
									c0.3-1,0.7-2,1-3c0-0.1,0.2-0.2,0.2-0.2c0.6,0.1,1.3,0.3,1.9,0.4c0.1,0,0.1,0.2,0.1,0.3c-0.4,1.1-0.7,2.1-1.1,3.2
									C80.2,36.3,80.1,36.4,80,36.4z"/>
							</g>
							<g>
								<path fill-rule="evenodd" clip-rule="evenodd" fill="#C9DA2A" d="M84.4,32.8c-0.8-0.2-1.6-0.3-2.4-0.5
									c-0.1,0-0.1-0.2-0.1-0.3c0.4-1.1,0.7-2.1,1.1-3.2c0.1-0.2,0.2-0.3,0.3-0.3c0.8,0.1,1.6,0.1,2.4,0.2c0.1,0,0.2,0.2,0.1,0.3
									c-0.4,1.2-0.8,2.3-1.1,3.5C84.6,32.7,84.5,32.8,84.4,32.8z"/>
								<path fill-rule="evenodd" clip-rule="evenodd" fill="#C9DA2A" d="M81.4,32.2c-0.7-0.1-1.3-0.3-2-0.4c-0.1,0-0.1-0.1-0.1-0.3
									c0.3-1,0.7-2,1-2.9c0-0.1,0.2-0.2,0.2-0.2c0.6,0,1.3,0.1,2,0.2c0.1,0,0.1,0.1,0.1,0.3c-0.4,1.1-0.7,2.1-1.1,3.2
									C81.6,32.1,81.5,32.2,81.4,32.2z"/>
							</g>
						</g>
						<g>
							<g>
								<path fill-rule="evenodd" clip-rule="evenodd" fill="#C9DA2A" d="M85.9,28.1c-0.8,0-1.6-0.1-2.4-0.1c-0.1,0-0.2-0.1-0.1-0.3
									c0.3-1,0.7-2.1,1-3.1c0.1-0.2,0.2-0.3,0.3-0.3c0.8,0,1.6-0.1,2.5-0.1c0.1,0,0.2,0.1,0.1,0.3c-0.4,1.1-0.7,2.2-1.1,3.4
									C86.2,28,86,28.1,85.9,28.1z"/>
								<path fill-rule="evenodd" clip-rule="evenodd" fill="#C9DA2A" d="M82.8,27.9c-0.7,0-1.4-0.1-2-0.1c-0.1,0-0.1-0.1-0.1-0.3
									c0.3-1,0.6-1.9,1-2.9c0-0.1,0.2-0.3,0.3-0.3c0.7,0,1.4-0.1,2.1-0.1c0.1,0,0.2,0.1,0.1,0.3c-0.3,1-0.7,2.1-1,3.1
									C83,27.8,82.9,27.9,82.8,27.9z"/>
							</g>
							<g>
								<path fill-rule="evenodd" clip-rule="evenodd" fill="#C9DA2A" d="M87.4,23.7c-0.9,0.1-1.7,0.1-2.5,0.2
									c-0.1,0-0.2-0.1-0.1-0.3c0.3-1,0.7-2,1-3.1c0-0.1,0.2-0.3,0.3-0.3c0.8-0.1,1.7-0.3,2.6-0.4c0.1,0,0.2,0.1,0.2,0.3
									c-0.4,1.1-0.7,2.2-1.1,3.3C87.6,23.6,87.5,23.7,87.4,23.7z"/>
								<path fill-rule="evenodd" clip-rule="evenodd" fill="#C9DA2A" d="M84.1,23.9c-0.7,0-1.4,0.1-2.1,0.1c-0.1,0-0.1-0.1-0.1-0.2
									c0.3-0.9,0.6-1.9,0.9-2.8c0-0.1,0.2-0.3,0.3-0.3c0.7-0.1,1.4-0.2,2.1-0.4c0.1,0,0.2,0.1,0.1,0.2c-0.3,1-0.7,2-1,3
									C84.4,23.8,84.3,23.9,84.1,23.9z"/>
							</g>
						</g>
						<g>
							<g>
								<path fill-rule="evenodd" clip-rule="evenodd" fill="#C9DA2A" d="M77.5,35.5c-0.5-0.2-1.1-0.4-1.6-0.6c-0.1,0-0.1-0.2,0-0.3
									c0.3-0.9,0.6-1.8,0.9-2.7c0-0.1,0.1-0.2,0.2-0.2c0.5,0.1,1.1,0.2,1.6,0.3c0.1,0,0.1,0.2,0.1,0.3c-0.3,1-0.7,1.9-1,2.9
									C77.7,35.4,77.6,35.5,77.5,35.5z"/>
								<path fill-rule="evenodd" clip-rule="evenodd" fill="#C9DA2A" d="M75.4,34.8c-0.5-0.2-0.9-0.3-1.4-0.5c-0.1,0-0.1-0.1,0-0.3
									c0.3-0.8,0.6-1.7,0.9-2.5c0-0.1,0.1-0.2,0.2-0.2c0.5,0.1,0.9,0.2,1.4,0.3c0.1,0,0.1,0.1,0,0.3c-0.3,0.9-0.6,1.8-0.9,2.7
									C75.6,34.7,75.5,34.8,75.4,34.8z"/>
							</g>
							<g>
								<path fill-rule="evenodd" clip-rule="evenodd" fill="#C9DA2A" d="M78.8,31.7c-0.6-0.1-1.1-0.2-1.6-0.3
									c-0.1,0-0.1-0.1-0.1-0.3c0.3-0.9,0.6-1.8,0.9-2.7c0-0.1,0.1-0.2,0.2-0.2c0.5,0,1.1,0.1,1.7,0.1c0.1,0,0.1,0.1,0.1,0.3
									c-0.3,1-0.7,1.9-1,2.9C79,31.6,78.9,31.7,78.8,31.7z"/>
								<path fill-rule="evenodd" clip-rule="evenodd" fill="#C9DA2A" d="M76.7,31.3c-0.5-0.1-1-0.2-1.4-0.3c-0.1,0-0.1-0.1,0-0.2
									c0.3-0.8,0.6-1.7,0.9-2.5c0-0.1,0.1-0.2,0.2-0.2c0.5,0,1,0.1,1.5,0.1c0.1,0,0.1,0.1,0.1,0.2c-0.3,0.9-0.6,1.8-0.9,2.7
									C76.8,31.2,76.7,31.3,76.7,31.3z"/>
							</g>
						</g>
						<g>
							<g>
								<path fill-rule="evenodd" clip-rule="evenodd" fill="#C9DA2A" d="M80.1,27.8c-0.6,0-1.2-0.1-1.7-0.1c-0.1,0-0.1-0.1-0.1-0.3
									c0.3-0.9,0.6-1.8,0.9-2.6c0-0.1,0.2-0.2,0.2-0.2c0.6,0,1.1-0.1,1.8-0.1c0.1,0,0.1,0.1,0.1,0.2c-0.3,0.9-0.6,1.9-1,2.8
									C80.3,27.7,80.2,27.8,80.1,27.8z"/>
								<path fill-rule="evenodd" clip-rule="evenodd" fill="#C9DA2A" d="M77.9,27.6c-0.5,0-1-0.1-1.5-0.1c-0.1,0-0.1-0.1,0-0.2
									c0.3-0.8,0.6-1.6,0.9-2.5c0-0.1,0.1-0.2,0.2-0.2c0.5,0,1-0.1,1.5-0.1c0.1,0,0.1,0.1,0.1,0.2c-0.3,0.9-0.6,1.7-0.9,2.6
									C78.1,27.5,78,27.7,77.9,27.6z"/>
							</g>
							<g>
								<path fill-rule="evenodd" clip-rule="evenodd" fill="#C9DA2A" d="M81.3,24.1c-0.6,0-1.2,0.1-1.8,0.1c-0.1,0-0.1-0.1-0.1-0.2
									c0.3-0.9,0.6-1.7,0.9-2.6c0-0.1,0.1-0.2,0.2-0.3c0.6-0.1,1.2-0.2,1.8-0.3c0.1,0,0.1,0.1,0.1,0.2c-0.3,0.9-0.6,1.9-0.9,2.8
									C81.6,24,81.4,24.1,81.3,24.1z"/>
								<path fill-rule="evenodd" clip-rule="evenodd" fill="#C9DA2A" d="M79.1,24.2c-0.5,0-1,0.1-1.5,0.1c-0.1,0-0.1-0.1-0.1-0.2
									c0.3-0.8,0.6-1.6,0.8-2.4c0-0.1,0.1-0.2,0.2-0.2c0.5-0.1,1-0.2,1.6-0.3c0.1,0,0.1,0.1,0.1,0.2c-0.3,0.9-0.6,1.7-0.9,2.6
									C79.3,24.1,79.2,24.2,79.1,24.2z"/>
							</g>
						</g>
					</g>
				</g>
			</g>
			<rect x="160.5" y="56.7" fill-rule="evenodd" clip-rule="evenodd" fill="#398733" width="10.7" height="10.5"/>
			<rect x="148.1" y="47.7" fill-rule="evenodd" clip-rule="evenodd" fill="#6EA335" width="8.9" height="8.8"/>
			<rect x="138.9" y="40.8" fill-rule="evenodd" clip-rule="evenodd" fill="#89B334" width="6.3" height="6.2"/>
			<rect x="157.7" y="38.5" fill-rule="evenodd" clip-rule="evenodd" fill="#A3C332" width="5.4" height="5.3"/>
			<rect x="150.1" y="31.6" fill-rule="evenodd" clip-rule="evenodd" fill="#C3D82E" width="3.6" height="3.5"/>
			<g>
				<rect x="148.1" y="69.4" fill-rule="evenodd" clip-rule="evenodd" fill="#005826" width="29.6" height="74.3"/>
				<g>
					<rect x="150.9" y="71.8" fill-rule="evenodd" clip-rule="evenodd" fill="#559434" width="8.9" height="5.3"/>
					<rect x="150.9" y="81.8" fill-rule="evenodd" clip-rule="evenodd" fill="#559434" width="8.9" height="5.3"/>
					<rect x="150.9" y="91.8" fill-rule="evenodd" clip-rule="evenodd" fill="#559434" width="8.9" height="5.3"/>
					<rect x="150.9" y="101.7" fill-rule="evenodd" clip-rule="evenodd" fill="#559434" width="8.9" height="5.3"/>
					<rect x="150.9" y="111.7" fill-rule="evenodd" clip-rule="evenodd" fill="#559434" width="8.9" height="5.3"/>
					<rect x="150.9" y="121.1" fill-rule="evenodd" clip-rule="evenodd" fill="#559434" width="8.9" height="5.3"/>
					<rect x="164.3" y="71.8" fill-rule="evenodd" clip-rule="evenodd" fill="#559434" width="8.9" height="5.3"/>
					<rect x="164.3" y="81.8" fill-rule="evenodd" clip-rule="evenodd" fill="#559434" width="8.9" height="5.3"/>
					<rect x="164.3" y="91.8" fill-rule="evenodd" clip-rule="evenodd" fill="#559434" width="8.9" height="5.3"/>
					<rect x="164.3" y="101.7" fill-rule="evenodd" clip-rule="evenodd" fill="#559434" width="8.9" height="5.3"/>
					<rect x="164.3" y="111.7" fill-rule="evenodd" clip-rule="evenodd" fill="#559434" width="8.9" height="5.3"/>
					<rect x="164.3" y="121.1" fill-rule="evenodd" clip-rule="evenodd" fill="#559434" width="8.9" height="5.3"/>
				</g>
			</g>
			<g>
				<rect x="101.9" y="58.1" fill-rule="evenodd" clip-rule="evenodd" fill="#137A30" width="26.2" height="76.7"/>
				<rect x="103.7" y="59.6" fill-rule="evenodd" clip-rule="evenodd" fill="#9CC83B" width="3.3" height="71.4"/>
				<rect x="115.5" y="59.6" fill-rule="evenodd" clip-rule="evenodd" fill="#9CC83B" width="3.3" height="71.4"/>
				<rect x="110.3" y="60" fill-rule="evenodd" clip-rule="evenodd" fill="#9CC83B" width="1.4" height="71.3"/>
				<rect x="122.4" y="59.6" fill-rule="evenodd" clip-rule="evenodd" fill="#9CC83B" width="1.4" height="72.5"/>
			</g>
			<g>
				<rect x="313.5" y="65.4" fill-rule="evenodd" clip-rule="evenodd" fill="#137A30" width="26.2" height="76.7"/>
				<rect x="315.4" y="66.9" fill-rule="evenodd" clip-rule="evenodd" fill="#9CC83B" width="3.3" height="71.4"/>
				<rect x="327.1" y="66.9" fill-rule="evenodd" clip-rule="evenodd" fill="#9CC83B" width="3.3" height="71.4"/>
				<rect x="321.9" y="67.3" fill-rule="evenodd" clip-rule="evenodd" fill="#9CC83B" width="1.4" height="71.3"/>
				<rect x="334" y="67" fill-rule="evenodd" clip-rule="evenodd" fill="#9CC83B" width="1.4" height="72.5"/>
			</g>
			<g>
				<rect x="77.3" y="50.9" fill-rule="evenodd" clip-rule="evenodd" fill="#A3C332" width="19.5" height="92.1"/>
				<g>
					<rect x="78.9" y="52.4" fill-rule="evenodd" clip-rule="evenodd" fill="#398733" width="4.4" height="85.7"/>
					<g>
						<rect x="77.6" y="56" fill-rule="evenodd" clip-rule="evenodd" fill="#398733" width="19.1" height="2.2"/>
						<rect x="77.6" y="67.6" fill-rule="evenodd" clip-rule="evenodd" fill="#398733" width="19.1" height="2.2"/>
						<rect x="77.6" y="79.2" fill-rule="evenodd" clip-rule="evenodd" fill="#398733" width="19.1" height="2.2"/>
						<rect x="77.6" y="90.8" fill-rule="evenodd" clip-rule="evenodd" fill="#398733" width="19.1" height="2.2"/>
						<rect x="77.6" y="102.4" fill-rule="evenodd" clip-rule="evenodd" fill="#398733" width="19.1" height="2.2"/>
						<rect x="77.6" y="114" fill-rule="evenodd" clip-rule="evenodd" fill="#398733" width="19.1" height="2.2"/>
						<rect x="77.6" y="125.6" fill-rule="evenodd" clip-rule="evenodd" fill="#398733" width="19.1" height="2.2"/>
						<rect x="77.6" y="61.7" fill-rule="evenodd" clip-rule="evenodd" fill="#398733" width="19.1" height="2.2"/>
						<rect x="77.6" y="73.3" fill-rule="evenodd" clip-rule="evenodd" fill="#398733" width="19.1" height="2.2"/>
						<rect x="77.6" y="84.9" fill-rule="evenodd" clip-rule="evenodd" fill="#398733" width="19.1" height="2.2"/>
						<rect x="77.6" y="96.5" fill-rule="evenodd" clip-rule="evenodd" fill="#398733" width="19.1" height="2.2"/>
						<rect x="77.6" y="108.1" fill-rule="evenodd" clip-rule="evenodd" fill="#398733" width="19.1" height="2.2"/>
						<rect x="77.6" y="119.7" fill-rule="evenodd" clip-rule="evenodd" fill="#398733" width="19.1" height="2.2"/>
					</g>
				</g>
			</g>
			<g>
				<path fill-rule="evenodd" clip-rule="evenodd" fill="#A3C332" d="M64.2,118.2h11.4L74,130.3c-0.1,0.8-0.7,1.6-1.6,1.6h-5.1
					c-0.9,0-1.4-0.7-1.6-1.6L64.2,118.2L64.2,118.2z M71.4,126c-0.3,0-0.7,0.1-1,0.1c0-0.1,0-0.3-0.1-0.4c-0.2,0.4-0.5,0.8-0.7,1.2
					c0.2,0.4,0.5,0.8,0.7,1.3c0-0.2,0-0.3,0-0.5c0.4-0.1,0.7-0.1,1.1-0.2c0.2-0.1,0.5-0.1,0.6-0.3c0.3-0.4,0.6-0.9,0.8-1.3
					c0.1-0.2,0.2-0.5,0.1-0.7l-0.6-1.2c-0.3-0.6-0.6,1.3-1.3,0.8c0.2,0.3,1.1,1.6,0.8,2.2C71.9,126.5,71.7,125.9,71.4,126L71.4,126z
					 M68.2,126c0.1-0.3,0.3-0.6,0.4-0.9c0.1,0,0.2,0.1,0.4,0.1c-0.2-0.4-0.5-0.8-0.7-1.2c-0.5,0-1,0-1.5,0c0.1,0.1,0.3,0.2,0.4,0.2
					c-0.1,0.3-0.3,0.7-0.4,1c-0.1,0.2-0.1,0.5-0.1,0.7c0.2,0.4,0.5,0.9,0.7,1.3c0.1,0.2,0.3,0.4,0.6,0.4l1.4,0.1
					c0.7,0.1-0.8-1.2,0-1.5c-0.4,0-2,0.1-2.3-0.4C67.4,126.2,68.1,126.3,68.2,126L68.2,126z M69.7,123.3c0.2,0.3,0.4,0.5,0.6,0.8
					c-0.1,0.1-0.2,0.2-0.3,0.2c0.5,0,0.9,0,1.4,0c0.2-0.4,0.5-0.8,0.7-1.3c-0.1,0.1-0.3,0.2-0.4,0.2c-0.2-0.3-0.5-0.6-0.7-0.9
					c-0.2-0.2-0.3-0.3-0.6-0.4c-0.5-0.1-1.1-0.1-1.5-0.1c-0.3,0-0.5,0.1-0.7,0.3l-0.8,1.1c-0.4,0.6,1.5-0.1,1.3,0.7
					c0.2-0.3,0.9-1.8,1.5-1.8C69.9,122.5,69.6,123,69.7,123.3z"/>
				<path fill-rule="evenodd" clip-rule="evenodd" fill="#A3C332" d="M63.5,117.3h12.9v-0.7c0-0.9-0.7-1.6-1.6-1.6H65
					c-0.9,0-1.6,0.7-1.6,1.6V117.3z"/>
				<path fill-rule="evenodd" clip-rule="evenodd" fill="#A3C332" d="M67.7,114.7h4.4v-0.4c0-0.5-0.4-0.9-0.9-0.9h-2.6
					c-0.5,0-0.9,0.4-0.9,0.9V114.7z"/>
			</g>
			<g>
				<polygon fill-rule="evenodd" clip-rule="evenodd" fill="#006D2D" points="137.5,83.1 138.2,83.9 138.8,83.2 140.9,142.5 
					136,142.5 				"/>
				<g>
					<path fill-rule="evenodd" clip-rule="evenodd" fill="#8BC53F" d="M137.6,60.8c-4.7,5-4.2,7.1,0.3,11.4
						C142.2,67.6,142.6,65.5,137.6,60.8z"/>
					<path fill-rule="evenodd" clip-rule="evenodd" fill="#006D2D" d="M138.1,74l-0.1-4.1l2.3-2.4c0.1-0.1-0.1-0.3-0.2-0.2l-2.2,2.2
						l-0.1-2.2l2.2-2.3c0.1-0.1-0.1-0.3-0.2-0.2l-2,2.1l-0.1-2.2l1.4-1.5c0.1-0.1-0.1-0.3-0.2-0.2l-1.3,1.3l0-1.8
						c0-0.3-0.4-0.2-0.4,0l0.1,1.8l-1.4-1.3c-0.1-0.1-0.3,0.1-0.2,0.2l1.5,1.4l0.1,2.1l-2.1-2c-0.1-0.1-0.3,0.1-0.2,0.2l2.3,2.2
						l0.1,2.1l-2.2-2.1c-0.1-0.1-0.3,0.1-0.2,0.2l2.3,2.3l0.1,4.1C137.7,74.3,138.1,74.3,138.1,74z"/>
				</g>
				<g>
					<path fill-rule="evenodd" clip-rule="evenodd" fill="#8BC53F" d="M126.5,81.3c6.7,1.6,8.3,0.1,9.7-6
						C130.2,73.8,128.1,74.6,126.5,81.3z"/>
					<path fill-rule="evenodd" clip-rule="evenodd" fill="#006D2D" d="M137.7,74.2l-3.5,2.1l-3.2-0.8c-0.2,0-0.2,0.2-0.1,0.2l3,0.8
						l-1.8,1.1l-3.1-0.7c-0.2,0-0.2,0.2-0.1,0.2l2.8,0.7l-1.8,1.1l-2-0.5c-0.2,0-0.2,0.2-0.1,0.2l1.8,0.4l-1.5,0.9
						c-0.2,0.1,0,0.5,0.2,0.3l1.6-1l-0.4,1.8c0,0.2,0.2,0.2,0.2,0.1l0.5-2.1l1.8-1.1l-0.7,2.9c0,0.2,0.2,0.2,0.2,0.1l0.7-3.1
						l1.8-1.1l-0.8,2.9c0,0.2,0.2,0.2,0.2,0.1l0.8-3.2l3.5-2.2C138.1,74.3,137.9,74,137.7,74.2z"/>
				</g>
				<g>
					<path fill-rule="evenodd" clip-rule="evenodd" fill="#8BC53F" d="M149.8,80.6c-2-6.6-4-7.2-10-5.4
						C141.5,81.1,143.2,82.5,149.8,80.6z"/>
					<path fill-rule="evenodd" clip-rule="evenodd" fill="#006D2D" d="M138,74.4l3.6,1.9l0.9,3.2c0,0.2,0.3,0.1,0.2-0.1l-0.8-3
						l1.9,1l0.9,3c0,0.2,0.3,0.1,0.2-0.1l-0.8-2.8l1.9,1l0.6,2c0,0.2,0.3,0.1,0.2-0.1l-0.5-1.8l1.6,0.8c0.2,0.1,0.4-0.2,0.2-0.3
						l-1.6-0.9l1.8-0.5c0.2,0,0.1-0.3-0.1-0.2l-2,0.6l-1.9-1l2.8-0.8c0.2,0,0.1-0.3-0.1-0.2l-3,0.9l-1.8-1l2.9-0.8
						c0.2,0,0.1-0.3-0.1-0.2l-3.2,0.9l-3.6-2C138,74,137.8,74.3,138,74.4z"/>
				</g>
				<g>
					<path fill-rule="evenodd" clip-rule="evenodd" fill="#8BC53F" d="M146,69.3c-4.7-1.1-5.8-0.1-6.9,4.2
						C143.4,74.5,144.9,74,146,69.3z"/>
					<path fill-rule="evenodd" clip-rule="evenodd" fill="#006D2D" d="M138.1,74.3l2.5-1.5l2.3,0.6c0.1,0,0.2-0.1,0-0.2l-2.1-0.6
						l1.3-0.8l2.2,0.5c0.1,0,0.1-0.1,0-0.2l-2-0.5l1.3-0.8l1.4,0.3c0.1,0,0.1-0.1,0-0.2l-1.3-0.3l1.1-0.7c0.2-0.1,0-0.3-0.1-0.2
						l-1.1,0.7l0.3-1.3c0-0.1-0.1-0.1-0.2,0l-0.3,1.5l-1.3,0.8l0.5-2c0-0.1-0.1-0.1-0.2,0l-0.5,2.2l-1.3,0.8l0.5-2.1
						c0-0.1-0.1-0.2-0.2,0l-0.6,2.3l-2.5,1.5C137.8,74.2,137.9,74.4,138.1,74.3z"/>
				</g>
				<g>
					<path fill-rule="evenodd" clip-rule="evenodd" fill="#8BC53F" d="M129.6,69.7c1.4,4.7,2.9,5.1,7.1,3.8
						C135.4,69.3,134.3,68.3,129.6,69.7z"/>
					<path fill-rule="evenodd" clip-rule="evenodd" fill="#006D2D" d="M137.9,74.1l-2.5-1.4l-0.6-2.3c0-0.1-0.2-0.1-0.2,0l0.6,2.1
						l-1.3-0.7l-0.6-2.1c0-0.1-0.2-0.1-0.2,0l0.6,2l-1.3-0.7l-0.4-1.4c0-0.1-0.2-0.1-0.2,0l0.4,1.2l-1.1-0.6
						c-0.2-0.1-0.3,0.2-0.1,0.2l1.1,0.6l-1.3,0.4c-0.1,0-0.1,0.2,0,0.2l1.4-0.4l1.3,0.7l-2,0.6c-0.1,0-0.1,0.2,0,0.2l2.2-0.6
						l1.3,0.7l-2.1,0.6c-0.1,0-0.1,0.2,0,0.2l2.2-0.6l2.6,1.4C138,74.4,138.1,74.1,137.9,74.1z"/>
				</g>
				<g>
					<path fill-rule="evenodd" clip-rule="evenodd" fill="#8BC53F" d="M138.2,83.6c-3.5-3.3-3.3-4.9-0.2-8.1
						C141.1,78.6,141.5,80.1,138.2,83.6z"/>
					<path fill-rule="evenodd" clip-rule="evenodd" fill="#006D2D" d="M138,74.2l0.1,2.9l1.7,1.6c0.1,0.1,0,0.2-0.1,0.1l-1.6-1.5
						l0,1.5l1.6,1.5c0.1,0.1,0,0.2-0.1,0.1l-1.5-1.4l0,1.5l1.1,1c0.1,0.1,0,0.2-0.1,0.1l-0.9-0.9l0,1.3c0,0.2-0.3,0.2-0.3,0l0-1.3
						l-0.9,1c-0.1,0.1-0.2,0-0.1-0.1l1-1.1l0-1.5l-1.4,1.5c-0.1,0.1-0.2,0-0.1-0.1l1.5-1.6l0-1.5l-1.4,1.6c-0.1,0.1-0.2,0-0.1-0.1
						l1.6-1.7l-0.1-2.9C137.8,74.1,138,74.1,138,74.2z"/>
				</g>
			</g>
			<g>
				<path fill-rule="evenodd" clip-rule="evenodd" fill="#A3C332" d="M175.8,124.7h14.8l-2,15.8c-0.1,1.1-0.9,2-2,2h-6.7
					c-1.1,0-1.9-0.9-2-2L175.8,124.7L175.8,124.7z M185.1,134.8c-0.4,0-0.9,0.1-1.3,0.1c0-0.2-0.1-0.3-0.1-0.5
					c-0.3,0.5-0.6,1-0.9,1.5c0.3,0.5,0.6,1.1,1,1.6c0-0.2,0-0.4,0-0.6c0.5-0.1,1-0.1,1.4-0.2c0.3-0.1,0.6-0.1,0.8-0.4
					c0.4-0.5,0.8-1.1,1.1-1.7c0.2-0.3,0.3-0.6,0.1-0.9l-0.8-1.6c-0.4-0.8-0.8,1.8-1.7,1c0.2,0.4,1.4,2.1,1.1,2.8
					C185.9,135.5,185.6,134.8,185.1,134.8L185.1,134.8z M181,134.9c0.2-0.4,0.4-0.8,0.5-1.2c0.2,0.1,0.3,0.1,0.5,0.2
					c-0.3-0.5-0.6-1-0.9-1.5c-0.6,0-1.3,0-1.9,0c0.2,0.1,0.4,0.2,0.5,0.3c-0.2,0.4-0.4,0.9-0.5,1.3c-0.1,0.3-0.2,0.6-0.1,0.9
					c0.2,0.6,0.6,1.2,0.9,1.8c0.2,0.3,0.4,0.5,0.8,0.5l1.8,0.1c0.9,0.1-1.1-1.6,0-2c-0.5,0-2.6,0.2-3-0.5
					C180.1,135.2,180.9,135.3,181,134.9L181,134.9z M183,131.3c0.3,0.4,0.5,0.7,0.8,1.1c-0.1,0.1-0.3,0.2-0.4,0.3c0.6,0,1.2,0,1.8,0
					c0.3-0.6,0.6-1.1,0.9-1.6c-0.2,0.1-0.4,0.2-0.5,0.3c-0.3-0.4-0.6-0.8-0.9-1.1c-0.2-0.2-0.4-0.4-0.7-0.5c-0.6-0.1-1.4-0.1-2-0.1
					c-0.4,0-0.6,0.1-0.9,0.4l-1,1.5c-0.5,0.8,1.9-0.2,1.7,1c0.2-0.4,1.1-2.3,1.9-2.3C183.3,130.3,182.8,130.9,183,131.3z"/>
				<path fill-rule="evenodd" clip-rule="evenodd" fill="#A3C332" d="M174.9,123.5h16.7v-0.9c0-1.1-0.9-2-2-2h-12.6
					c-1.1,0-2,0.9-2,2V123.5z"/>
				<path fill-rule="evenodd" clip-rule="evenodd" fill="#A3C332" d="M180.4,120.2h5.7v-0.5c0-0.6-0.5-1.2-1.2-1.2h-3.4
					c-0.6,0-1.2,0.5-1.2,1.2V120.2z"/>
			</g>
			<g>
				<path fill-rule="evenodd" clip-rule="evenodd" fill="#398733" d="M371.7,130.3h10.2l-1.4,10.9c-0.1,0.8-0.6,1.4-1.4,1.4h-4.6
					c-0.8,0-1.3-0.6-1.4-1.4L371.7,130.3L371.7,130.3z M378.1,137.2c-0.3,0-0.6,0.1-0.9,0.1c0-0.1,0-0.2-0.1-0.4
					c-0.2,0.4-0.4,0.7-0.6,1.1c0.2,0.4,0.4,0.8,0.7,1.1c0-0.1,0-0.3,0-0.4c0.3,0,0.7-0.1,1-0.1c0.2,0,0.4-0.1,0.6-0.3
					c0.3-0.3,0.5-0.8,0.7-1.1c0.1-0.2,0.2-0.4,0.1-0.6l-0.5-1.1c-0.3-0.6-0.6,1.2-1.2,0.7c0.2,0.3,1,1.5,0.7,1.9
					C378.6,137.7,378.4,137.2,378.1,137.2L378.1,137.2z M375.3,137.3c0.1-0.3,0.3-0.5,0.4-0.8c0.1,0,0.2,0.1,0.3,0.1
					c-0.2-0.4-0.4-0.7-0.6-1.1c-0.4,0-0.9,0-1.3,0c0.1,0.1,0.2,0.1,0.4,0.2c-0.1,0.3-0.2,0.6-0.4,0.9c-0.1,0.2-0.1,0.4,0,0.6
					c0.2,0.4,0.4,0.8,0.6,1.2c0.1,0.2,0.3,0.4,0.5,0.4l1.2,0.1c0.6,0.1-0.8-1.1,0-1.4c-0.3,0-1.8,0.1-2-0.3
					C374.6,137.5,375.2,137.5,375.3,137.3L375.3,137.3z M376.7,134.8c0.2,0.2,0.3,0.5,0.5,0.7c-0.1,0.1-0.2,0.1-0.3,0.2
					c0.4,0,0.8,0,1.2,0c0.2-0.4,0.4-0.8,0.6-1.1c-0.1,0.1-0.2,0.1-0.4,0.2c-0.2-0.3-0.4-0.5-0.6-0.8c-0.2-0.2-0.3-0.3-0.5-0.3
					c-0.4-0.1-0.9-0.1-1.4-0.1c-0.2,0-0.4,0.1-0.6,0.3l-0.7,1c-0.4,0.5,1.3-0.1,1.2,0.7c0.2-0.3,0.8-1.6,1.3-1.6
					C376.9,134.1,376.5,134.6,376.7,134.8z"/>
				<path fill-rule="evenodd" clip-rule="evenodd" fill="#398733" d="M371.1,129.5h11.5v-0.6c0-0.8-0.6-1.4-1.4-1.4h-8.7
					c-0.8,0-1.4,0.6-1.4,1.4V129.5z"/>
				<path fill-rule="evenodd" clip-rule="evenodd" fill="#398733" d="M374.9,127.2h3.9v-0.4c0-0.4-0.4-0.8-0.8-0.8h-2.3
					c-0.4,0-0.8,0.4-0.8,0.8V127.2z"/>
			</g>
			<rect x="54.5" y="132.1" fill-rule="evenodd" clip-rule="evenodd" fill="#C3D82E" width="93.6" height="5.5"/>
			<g>
				<path fill-rule="evenodd" clip-rule="evenodd" fill="#FFFFFF" d="M289.3,113.5h0.6v8.2h-1v-7.8
					C288.9,113.7,289.1,113.5,289.3,113.5z"/>
			</g>
			<g>
				<rect x="418" y="50.9" fill-rule="evenodd" clip-rule="evenodd" fill="#137A30" width="12.3" height="93"/>
				<g>
					<rect x="420" y="53.7" fill-rule="evenodd" clip-rule="evenodd" fill="#C3D82E" width="2.4" height="14.1"/>
					<rect x="420" y="70.8" fill-rule="evenodd" clip-rule="evenodd" fill="#C3D82E" width="2.4" height="14.1"/>
					<rect x="420" y="87.9" fill-rule="evenodd" clip-rule="evenodd" fill="#C3D82E" width="2.4" height="14.1"/>
					<rect x="420" y="105" fill-rule="evenodd" clip-rule="evenodd" fill="#C3D82E" width="2.4" height="14.1"/>
					<rect x="420" y="122.1" fill-rule="evenodd" clip-rule="evenodd" fill="#C3D82E" width="2.4" height="14.1"/>
				</g>
				<g>
					<rect x="425.4" y="53.7" fill-rule="evenodd" clip-rule="evenodd" fill="#C3D82E" width="2.4" height="14.1"/>
					<rect x="425.4" y="70.8" fill-rule="evenodd" clip-rule="evenodd" fill="#C3D82E" width="2.4" height="14.1"/>
					<rect x="425.4" y="87.9" fill-rule="evenodd" clip-rule="evenodd" fill="#C3D82E" width="2.4" height="14.1"/>
					<rect x="425.4" y="105" fill-rule="evenodd" clip-rule="evenodd" fill="#C3D82E" width="2.4" height="14.1"/>
					<rect x="425.4" y="122.1" fill-rule="evenodd" clip-rule="evenodd" fill="#C3D82E" width="2.4" height="14.1"/>
				</g>
			</g>
			<g>
				<path fill-rule="evenodd" clip-rule="evenodd" fill="#006D2D" d="M39.5,109.7h12.6c1.6,0,2.9,1.3,2.9,2.9v26.1H36.6v-26.1
					C36.6,111,37.9,109.7,39.5,109.7z"/>
				<path fill-rule="evenodd" clip-rule="evenodd" fill="#62BA46" d="M40.5,112.7h10.6c0.9,0,1.6,0.7,1.6,1.6v8.4H38.9v-8.4
					C38.9,113.4,39.7,112.7,40.5,112.7z"/>
				<path fill-rule="evenodd" clip-rule="evenodd" fill="#FFFFFF" d="M40.6,113.6h0.6v8.2h-1V114C40.2,113.8,40.4,113.6,40.6,113.6z
					"/>
				<path fill-rule="evenodd" clip-rule="evenodd" fill="#006D2D" d="M36.7,138.4h18.1c1.2,0,2.2,1,2.2,2.2v2.6H34.6v-2.6
					C34.6,139.4,35.5,138.4,36.7,138.4z"/>
				<path fill-rule="evenodd" clip-rule="evenodd" fill="#006D2D" d="M55,119.2v-0.7h2.1c0.2,0,0.4,0.2,0.4,0.4v14.3
					c0,0.9,0.8,1.4,1.6,1.4c0.8,0,1.6-0.4,1.6-1.4v-11.6c0-0.5,0.7-0.5,0.7,0v11.6c0,1.3-1.1,2.1-2.4,2.1c-1.2,0-2.4-0.7-2.4-2.1
					v-13.9H55z"/>
				<path fill-rule="evenodd" clip-rule="evenodd" fill="#006D2D" d="M55.7,115.3c-0.7-0.4-0.1-1.4,0.6-1l4.7,2.6
					c0.2,0.1,0.3,0.3,0.3,0.4l0.5,4c0.1,0.7-1,0.9-1.1,0.1l-0.4-3.7L55.7,115.3z"/>
				<path fill-rule="evenodd" clip-rule="evenodd" fill="#006D2D" d="M57.8,116c0-0.5,0.7-0.5,0.7,0l-0.1,3.5l2.7,0.7
					c0.5,0.1,0.3,0.8-0.2,0.7l-3-0.8c-0.2,0-0.3-0.2-0.3-0.4L57.8,116z"/>
				<path fill-rule="evenodd" clip-rule="evenodd" fill="#006D2D" d="M59.3,117.1c0-0.3,0.4-0.2,0.4,0l0,1.9l1.5,0.4
					c0.2,0.1,0.2,0.4-0.1,0.4l-1.6-0.4c-0.1,0-0.1-0.1-0.1-0.2L59.3,117.1z"/>
			</g>
			<g>
				<rect x="197.9" y="56.3" fill-rule="evenodd" clip-rule="evenodd" fill="#398733" width="24" height="86.4"/>
				<g>
					<g>
						<rect x="201.6" y="58.9" fill-rule="evenodd" clip-rule="evenodd" fill="#C3D82E" width="1.4" height="8.7"/>
						<rect x="201.6" y="72" fill-rule="evenodd" clip-rule="evenodd" fill="#C3D82E" width="1.4" height="8.7"/>
						<rect x="201.6" y="85" fill-rule="evenodd" clip-rule="evenodd" fill="#C3D82E" width="1.4" height="8.7"/>
						<rect x="201.6" y="98.1" fill-rule="evenodd" clip-rule="evenodd" fill="#C3D82E" width="1.4" height="8.7"/>
						<rect x="201.6" y="111.2" fill-rule="evenodd" clip-rule="evenodd" fill="#C3D82E" width="1.4" height="8.7"/>
						<rect x="201.6" y="124.3" fill-rule="evenodd" clip-rule="evenodd" fill="#C3D82E" width="1.4" height="8.7"/>
						<rect x="201.6" y="137.3" fill-rule="evenodd" clip-rule="evenodd" fill="#C3D82E" width="1.4" height="8.7"/>
					</g>
					<g>
						<rect x="217.2" y="58.9" fill-rule="evenodd" clip-rule="evenodd" fill="#C3D82E" width="1.4" height="8.7"/>
						<rect x="217.2" y="72" fill-rule="evenodd" clip-rule="evenodd" fill="#C3D82E" width="1.4" height="8.7"/>
						<rect x="217.2" y="85" fill-rule="evenodd" clip-rule="evenodd" fill="#C3D82E" width="1.4" height="8.7"/>
						<rect x="217.2" y="98.1" fill-rule="evenodd" clip-rule="evenodd" fill="#C3D82E" width="1.4" height="8.7"/>
						<rect x="217.2" y="111.2" fill-rule="evenodd" clip-rule="evenodd" fill="#C3D82E" width="1.4" height="8.7"/>
						<rect x="217.2" y="124.3" fill-rule="evenodd" clip-rule="evenodd" fill="#C3D82E" width="1.4" height="8.7"/>
						<rect x="217.2" y="137.3" fill-rule="evenodd" clip-rule="evenodd" fill="#C3D82E" width="1.4" height="8.7"/>
					</g>
					<g>
						<rect x="205.3" y="60.7" fill-rule="evenodd" clip-rule="evenodd" fill="#C9DA2A" width="9.4" height="5.1"/>
						<rect x="205.3" y="73.8" fill-rule="evenodd" clip-rule="evenodd" fill="#C9DA2A" width="9.4" height="5.1"/>
						<rect x="205.3" y="86.9" fill-rule="evenodd" clip-rule="evenodd" fill="#C9DA2A" width="9.4" height="5.1"/>
						<rect x="205.3" y="99.9" fill-rule="evenodd" clip-rule="evenodd" fill="#C9DA2A" width="9.4" height="5.1"/>
						<rect x="205.3" y="113" fill-rule="evenodd" clip-rule="evenodd" fill="#C9DA2A" width="9.4" height="5.1"/>
						<rect x="205.3" y="126.1" fill-rule="evenodd" clip-rule="evenodd" fill="#C9DA2A" width="9.4" height="5.1"/>
						<rect x="205.3" y="139.2" fill-rule="evenodd" clip-rule="evenodd" fill="#C9DA2A" width="9.4" height="5.1"/>
					</g>
				</g>
			</g>
			<g>
				<rect x="344.2" y="76.3" fill-rule="evenodd" clip-rule="evenodd" fill="#398733" width="18.7" height="67.2"/>
				<g>
					<g>
						<rect x="347" y="78.3" fill-rule="evenodd" clip-rule="evenodd" fill="#C3D82E" width="1.1" height="6.8"/>
						<rect x="347" y="88.5" fill-rule="evenodd" clip-rule="evenodd" fill="#C3D82E" width="1.1" height="6.8"/>
						<rect x="347" y="98.6" fill-rule="evenodd" clip-rule="evenodd" fill="#C3D82E" width="1.1" height="6.8"/>
						<rect x="347" y="108.8" fill-rule="evenodd" clip-rule="evenodd" fill="#C3D82E" width="1.1" height="6.8"/>
						<rect x="347" y="119" fill-rule="evenodd" clip-rule="evenodd" fill="#C3D82E" width="1.1" height="6.8"/>
						<rect x="347" y="129.1" fill-rule="evenodd" clip-rule="evenodd" fill="#C3D82E" width="1.1" height="6.8"/>
						<rect x="347" y="139.3" fill-rule="evenodd" clip-rule="evenodd" fill="#C3D82E" width="1.1" height="6.8"/>
					</g>
					<g>
						<rect x="359.2" y="78.3" fill-rule="evenodd" clip-rule="evenodd" fill="#C3D82E" width="1.1" height="6.8"/>
						<rect x="359.2" y="88.5" fill-rule="evenodd" clip-rule="evenodd" fill="#C3D82E" width="1.1" height="6.8"/>
						<rect x="359.2" y="98.6" fill-rule="evenodd" clip-rule="evenodd" fill="#C3D82E" width="1.1" height="6.8"/>
						<rect x="359.2" y="108.8" fill-rule="evenodd" clip-rule="evenodd" fill="#C3D82E" width="1.1" height="6.8"/>
						<rect x="359.2" y="119" fill-rule="evenodd" clip-rule="evenodd" fill="#C3D82E" width="1.1" height="6.8"/>
						<rect x="359.2" y="129.1" fill-rule="evenodd" clip-rule="evenodd" fill="#C3D82E" width="1.1" height="6.8"/>
						<rect x="359.2" y="139.3" fill-rule="evenodd" clip-rule="evenodd" fill="#C3D82E" width="1.1" height="6.8"/>
					</g>
					<g>
						<rect x="349.9" y="79.7" fill-rule="evenodd" clip-rule="evenodd" fill="#C9DA2A" width="7.3" height="3.9"/>
						<rect x="349.9" y="89.9" fill-rule="evenodd" clip-rule="evenodd" fill="#C9DA2A" width="7.3" height="3.9"/>
						<rect x="349.9" y="100" fill-rule="evenodd" clip-rule="evenodd" fill="#C9DA2A" width="7.3" height="3.9"/>
						<rect x="349.9" y="110.2" fill-rule="evenodd" clip-rule="evenodd" fill="#C9DA2A" width="7.3" height="3.9"/>
						<rect x="349.9" y="120.4" fill-rule="evenodd" clip-rule="evenodd" fill="#C9DA2A" width="7.3" height="3.9"/>
						<rect x="349.9" y="130.5" fill-rule="evenodd" clip-rule="evenodd" fill="#C9DA2A" width="7.3" height="3.9"/>
						<rect x="349.9" y="140.7" fill-rule="evenodd" clip-rule="evenodd" fill="#C9DA2A" width="7.3" height="3.9"/>
					</g>
				</g>
			</g>
			<g>
				<path fill-rule="evenodd" clip-rule="evenodd" fill="#005826" d="M90.1,137.6c-0.2,2.6-2.4,4.6-5,4.6c-2.7,0-4.8-2.1-5-4.7
					l-6.2,0c0-9.1,5-7.2,6.4-9.5c6.7-11.4,24.7-11.8,32,1.8c5.9,1.6,9,4.3,8.5,7.9l-5,0c-0.2,2.5-2.4,4.5-5,4.5c-2.6,0-4.8-2-5-4.6
					L90.1,137.6z"/>
				<path fill-rule="evenodd" clip-rule="evenodd" fill="#C3D82E" d="M93.9,121.3c-4.6,0.5-9.6,3.1-11.1,7.4h11.1
					c0.5,0,0.9-0.4,0.9-0.8v-5.7C94.8,121.7,94.4,121.3,93.9,121.3z"/>
				<path fill-rule="evenodd" clip-rule="evenodd" fill="#C3D82E" d="M98.1,121.5c-0.5,0-0.8,0.4-0.8,0.8v5.5c0,0.5,0.4,0.8,0.8,0.8
					l10.3,0C107.7,125.3,103,121.9,98.1,121.5z"/>
			</g>
			<g>
				<polygon fill-rule="evenodd" clip-rule="evenodd" fill="#8BC540" points="430.5,142.1 430.5,150.5 5,150.5 5.1,142.5 				"/>
			</g>
		</g>
	</g>
</g>
<g id="Forma_1_copy">
	<g>
		<path fill-rule="evenodd" clip-rule="evenodd" fill="#04582D" d="M235.3,135.6c-1.9,0-3.4,1.5-3.4,3.4c0,1.9,1.5,3.4,3.4,3.4
			c1.9,0,3.4-1.5,3.4-3.4C238.8,137.1,237.2,135.6,235.3,135.6z M231.2,137.8c0.7-1.7,2.3-2.9,4.3-2.9c2,0,3.7,1.3,4.3,3h0.4
			c0.6-1.8,2.3-3,4.3-3c2,0,3.7,1.3,4.3,3h28.9v-4.1h-45.7L231.2,137.8z M244.4,135.6c-1.9,0-3.4,1.5-3.4,3.4c0,1.9,1.5,3.4,3.4,3.4
			c1.9,0,3.4-1.5,3.4-3.4C247.8,137.1,246.3,135.6,244.4,135.6z M286.3,135.6c-1.9,0-3.4,1.5-3.4,3.4c0,1.9,1.5,3.4,3.4,3.4
			c1.9,0,3.4-1.5,3.4-3.4C289.7,137.1,288.2,135.6,286.3,135.6z M294.7,130v-2.1l-2.1-9.4c0-0.7-0.9-0.7-1.3-0.7H280
			c-0.4,0-0.7,0.1-0.7,0.7v17.1c0,1.7,0.3,2,0.7,2h2.3c0.7-1.6,2.3-2.7,4.2-2.7c1.9,0,3.5,1.1,4.2,2.7h3.4c0.4,0,0.7-0.3,0.7-0.7
			v-3.3h-0.6V130H294.7z M284.4,127.8h-2.5v-0.5h2.5V127.8z M281.4,126.5v-7h9.4l1.1,7H281.4z M292.4,136h-1.7
			c-0.5-0.9-1.6-1.6-1.6-1.6h3.3V136z"/>
	</g>
</g>
<g id="Shape_17">
	<g>
		<polygon fill-rule="evenodd" clip-rule="evenodd" fill="#04582D" points="276.9,114.2 240.8,114.2 231.2,115.5 222.6,125.7 
			222.6,135.4 223.6,136.8 229.4,136.8 231.7,133.1 276.4,133.1 278.7,127.1 278.7,115.1 		"/>
	</g>
</g>
<g id="Forma_1">
	<g>
		<path fill="#A3C33A" d="M252.1,125.4h-1.9v-0.6l-0.5,0.7l-0.5,0.7l0.5,0.7l0.5,0.7v-0.4l1,0c0.9-0.1,1.1-0.4,1.1-0.4l1-1.8
			C253,125.5,252.1,125.4,252.1,125.4z M251.8,125.1c0.8,0.1,1.1-0.2,1.1-0.2c0.7-0.4,0.3-1.2,0.3-1.2l-0.6-0.9l-1.6,0.9
			L251.8,125.1z M247.5,123.8l0.5,0.3l-0.3-0.8l-0.3-0.8l-0.9,0.1l-0.9,0.1l0.3,0.2l-0.5,0.9c-0.4,0.8-0.2,1.1-0.2,1.1l1.1,1.8
			c-0.2-0.6,0.2-1.2,0.2-1.2L247.5,123.8z M246.6,126.4c0,0.7,0.9,0.8,0.9,0.8l1.1,0l0-1.8l-1.6,0
			C246.5,126,246.6,126.4,246.6,126.4z M249.3,120.6l0.9,1.6l-0.5,0.3l0.9,0.1l0.9,0.1l0.4-0.8l0.4-0.8l-0.4,0.2l-0.5-0.8
			c-0.5-0.7-0.9-0.7-0.9-0.7l-2.1,0C248.9,119.9,249.3,120.6,249.3,120.6z M248.4,120.1c-0.6-0.4-1.2,0.3-1.2,0.3l-0.6,0.9l1.6,0.9
			l0.8-1.3C248.8,120.2,248.4,120.1,248.4,120.1z"/>
	</g>
</g>
<g id="Shape_16">
	<g>
		<polygon fill-rule="evenodd" clip-rule="evenodd" fill="#A3C33A" points="291,119.5 280.9,119.5 280.6,127 292.2,126.7 		"/>
	</g>
</g>
</svg>
