<?xml version="1.0" encoding="utf-8"?>
<!-- Generator: Adobe Illustrator 19.0.0, SVG Export Plug-In . SVG Version: 6.00 Build 0)  -->
<svg version="1.1" id="Layer_1" xmlns="http://www.w3.org/2000/svg" xmlns:xlink="http://www.w3.org/1999/xlink" x="0px" y="0px"
	 viewBox="1934 126 480 540" style="enable-background:new 1934 126 480 540;" xml:space="preserve">
<style type="text/css">
	.st0{fill:url(#SVGID_1_);}
	.st1{clip-path:url(#SVGID_3_);}
	.st2{fill:#FEFEFE;stroke:#6EB535;stroke-width:0.8999;}
	.st3{fill:none;}
	.st4{fill:none;stroke:#FEFEFE;stroke-width:10.4148;stroke-linecap:round;stroke-linejoin:round;}
	.st5{fill:#2B2A29;}
</style>
<g id="Layer_x0020_1">
	<g id="_406346112">
		<g>
			
				<linearGradient id="SVGID_1_" gradientUnits="userSpaceOnUse" x1="2070.8142" y1="504.1947" x2="2409.1169" y2="504.1947" gradientTransform="matrix(1 0 0 -1 0 792.5)">
				<stop  offset="0" style="stop-color:#00913E"/>
				<stop  offset="1" style="stop-color:#AECE11"/>
			</linearGradient>
			<path class="st0" d="M2208.3,443.5c-112,11-148-35-135-118c26-212,296-76,335-194C2416.3,294.5,2363.3,409.5,2208.3,443.5z"/>
			<g>
				<defs>
					<path id="SVGID_2_" d="M2208.3,443.5c-112,11-148-35-135-118c26-212,296-76,335-194C2416.3,294.5,2363.3,409.5,2208.3,443.5z"
						/>
				</defs>
				<clipPath id="SVGID_3_">
					<use xlink:href="#SVGID_2_"  style="overflow:visible;"/>
				</clipPath>
				<g class="st1">
					<g>
						<path id="_x31_" class="st2" d="M2101.3,426.5c21-22,41-34,64-47c16,9,22,25,38,34c-7-11-15-21-22-32c28-11,44-17,71-28
							c76,36,70,41,5-7c13-8,26-16,39-23c27-5,48,4,70,9c-19-7-37-14-55-21c91-102,87-139,92-162c-15,61-56,109-101,146
							c0-15,8-52,3-102c0,49-4,76-23,115c-16,8-32,16-48,24c4-55,5-86-1-131c-1,46-8,89-19,134c-18,8-37,17-55,25c-3-54-2-95-15-136
							c5,55,5,98,2,154c-7-2-14-3-21-5C2117.3,391.5,2109.3,408.5,2101.3,426.5z"/>
					</g>
				</g>
			</g>
			<path class="st3" d="M2208.3,443.5c-112,11-148-35-135-118c26-212,296-76,335-194C2416.3,294.5,2363.3,409.5,2208.3,443.5z"/>
			<g>
				<path class="st4" d="M1984.3,385.5c-41,50-55,116-39,159c0-30-9-121,118-83c207,45,173,3,327-99c6-13,3-16-10-14
					c-19,2-27,9-44,18c-115,61-139,51-175,47c-17-4-29-13-34-22c-15-24,5-18,19-13c44,16,92,30,128-11c6-8,0-30-22-14
					c-53,14-94-35-160-29C2048.3,327.5,2011.3,351.5,1984.3,385.5z"/>
				<path id="_x31__1_" class="st5" d="M1984.3,385.5c-41,50-55,116-39,159c0-30-9-121,118-83c207,45,173,3,327-99c6-13,3-16-10-14
					c-19,2-27,9-44,18c-115,61-139,51-175,47c-17-4-29-13-34-22c-15-24,5-18,19-13c44,16,92,30,128-11c6-8,0-30-22-14
					c-53,14-94-35-160-29C2048.3,327.5,2011.3,351.5,1984.3,385.5z"/>
			</g>
			<path class="st5" d="M1971.3,605.5h82v-23h-45l0,0l45-64v-16h-78v23h42l0,0l-46,66V605.5z M2058.3,502.5v103h28v-103H2058.3z
				 M2185.3,544.5h-40v21h14v18c-2,1-5,1-9,1c-17,0-30-11-30-30c0-21,15-30,32-30c11,0,18,1,24,4l6-22c-6-3-16-5-30-5
				c-34,0-61,18-61,54c0,15,5,28,15,37c9,9,23,14,43,14c14,0,28-3,36-5V544.5z M2282.3,605.5h27l-5-103h-37l-7,27c-3,11-7,26-10,39
				l0,0c-2-13-5-27-8-38l-7-28h-38l-6,103h26l1-37c1-11,1-27,2-41l0,0c3,14,6,29,8,40l9,36h22l10-36c3-11,8-27,11-40l0,0
				c0,16,1,30,1,41L2282.3,605.5z M2371.3,581.5l6,24h30l-31-103h-37l-30,103h29l6-24H2371.3z M2348.3,561.5l4-19c2-5,3-14,5-20l0,0
				c2,6,4,15,5,20l5,19H2348.3z"/>
		</g>
		<path class="st5" d="M1988.3,659.5c-1-1-1-3-1-5v-9c0-4-2-9-9-9c-3,0-5,1-7,2l1,3c1-1,4-2,6-2c4,0,5,3,5,5v1c-9,0-14,3-14,8
			c0,4,2,7,7,7c3,0,6-2,7-3l0,0l1,2H1988.3z M1983.3,652.5v1c-1,2-3,4-6,4c-2,0-4-1-4-4c0-5,6-5,10-5V652.5z M1994.3,659.5h4v-33h-4
			V659.5z M2021.3,655.5c-1,1-3,2-5,2c-5,0-8-4-8-9s3-9,8-9c2,0,4,1,5,1l1-3c-1-1-4-1-6-1c-8,0-13,5-13,12s5,12,12,12c3,0,6-1,7-1
			L2021.3,655.5z M2027.3,659.5h4v-14c0,0,0-1,0-2c1-2,3-4,6-4c4,0,5,3,5,7v13h4v-13c0-8-5-10-8-10c-1,0-3,0-4,1s-3,2-3,3l0,0v-14
			h-4V659.5z M2072.3,649.5c0-1,0-1,0-2c0-5-2-11-10-11c-7,0-11,5-11,12s5,12,12,12c3,0,6-1,7-2v-3c-2,1-4,2-7,2c-4,0-8-3-8-8
			H2072.3z M2055.3,646.5c1-3,3-7,7-7c5,0,6,4,6,7H2055.3z M2077.3,659.5h4v-14c0,0,0-1,0-2c1-2,3-4,6-4s4,3,4,7v13h4v-14
			c0-1,1-1,1-2c0-2,2-4,5-4s5,3,5,7v13h4v-13c0-8-5-10-8-10c-2,0-3,0-5,1c-1,1-2,2-2,3h-1c-1-2-3-4-6-4c-4,0-6,2-7,4l0,0l-1-4h-3
			c0,2,0,4,0,7V659.5z M2121.3,659.5v-23h-4v23H2121.3z M2119.3,627.5c-2,0-3,1-3,3c0,1,1,2,3,2c1,0,2-1,2-2
			C2121.3,628.5,2120.3,627.5,2119.3,627.5z M2126.3,658.5c2,1,4,2,7,2c5,0,8-3,8-7c0-3-2-5-6-7c-3-1-4-2-4-4s1-3,4-3c2,0,4,1,4,1
			l1-3c-1-1-3-1-5-1c-5,0-8,3-8,7c0,2,2,5,6,6c3,1,4,2,4,4s-1,4-4,4c-2,0-5-1-6-2L2126.3,658.5z M2148.3,631.5v5h-4v4h4v12
			c0,3,0,5,1,6s3,2,5,2c1,0,3,0,3-1v-3c0,0-1,0-2,0c-2,0-3-1-3-4v-12h6v-4h-6v-6L2148.3,631.5z M2161.3,658.5c1,1,4,2,6,2
			c6,0,9-3,9-7c0-3-2-5-6-7c-3-1-4-2-4-4s1-3,3-3c3,0,4,1,5,1l1-3c-1-1-3-1-6-1c-4,0-7,3-7,7c0,2,1,5,6,6c3,1,4,2,4,4s-2,4-5,4
			c-2,0-4-1-5-2L2161.3,658.5z M2201.3,636.5c-6,0-11,4-11,12c0,7,5,12,11,12c5,0,11-4,11-12
			C2212.3,641.5,2208.3,636.5,2201.3,636.5z M2201.3,639.5c5,0,7,5,7,9c0,5-3,9-7,9s-7-4-7-9
			C2194.3,644.5,2196.3,639.5,2201.3,639.5z M2222.3,659.5v-19h6v-4h-6v-1c0-3,1-7,5-7c1,0,2,1,2,1l1-3c-1-1-2-1-4-1s-4,1-5,2
			c-2,2-3,5-3,8v1h-3v4h3v19H2222.3z M2243.3,631.5v5h-4v4h4v12c0,3,0,5,1,6s3,2,5,2c1,0,3,0,3-1v-3c0,0-1,0-2,0c-2,0-3-1-3-4v-12h6
			v-4h-6v-6L2243.3,631.5z M2257.3,659.5h5v-14c0,0,0-1,0-2c1-2,3-4,6-4c4,0,5,3,5,7v13h4v-13c0-8-5-10-8-10c-2,0-3,0-4,1
			c-2,1-3,2-3,3l0,0v-14h-5V659.5z M2302.3,649.5c0-1,1-1,1-2c0-5-2-11-10-11c-7,0-11,5-11,12s4,12,12,12c3,0,6-1,7-2v-3
			c-2,1-4,2-7,2c-4,0-8-3-8-8H2302.3z M2286.3,646.5c1-3,2-7,7-7c4,0,6,4,6,7H2286.3z M2318.3,659.5h4v-14c0,0,0-1,0-2c1-2,3-4,6-4
			s4,3,4,7v13h4v-14c0-1,1-1,1-2c0-2,2-4,5-4s5,3,5,7v13h4v-13c0-8-5-10-8-10c-2,0-3,0-5,1c-1,1-2,2-2,3h-1c-1-2-3-4-6-4
			c-4,0-6,2-7,4l0,0l-1-4h-3c0,2,0,4,0,7V659.5z M2356.3,658.5c2,1,4,2,7,2c5,0,8-3,8-7c0-3-2-5-6-7c-3-1-4-2-4-4s1-3,4-3
			c2,0,3,1,4,1l1-3c-1-1-3-1-5-1c-5,0-8,3-8,7c0,2,2,5,6,6c3,1,4,2,4,4s-1,4-4,4c-2,0-5-1-6-2L2356.3,658.5z M2374.3,636.5l7,23h4
			l3-11c1-2,2-4,3-7l0,0c0,3,1,5,2,7l3,11h4l7-23h-4l-3,12c-1,3-1,5-2,7l0,0c0-2-1-4-2-7l-4-12h-3l-4,12c-1,3-1,5-2,7l0,0
			c0-2-1-4-2-7l-3-12H2374.3z"/>
	</g>
</g>
</svg>
