<?xml version="1.0" encoding="utf-8"?>
<!-- Generator: Adobe Illustrator 18.1.1, SVG Export Plug-In . SVG Version: 6.00 Build 0)  -->
<svg version="1.1" xmlns="http://www.w3.org/2000/svg" xmlns:xlink="http://www.w3.org/1999/xlink" x="0px" y="0px"
	 viewBox="0 0 3508 692" enable-background="new 0 0 3508 692" xml:space="preserve">
<g id="Shape_4_1_" enable-background="new    ">
	<g id="Shape_4">
		<g>
			<polygon fill="#368833" points="3508,692 3508,503.2 3449.9,442.4 3231.9,670.1 3044.5,400.3 2683.6,675.4 2503.1,512.2 
				2327.4,672.8 1924.3,316 1509.6,678 1216.6,445 972.9,670.1 806.5,413.4 591,672.8 389.4,355.5 147,692 			"/>
		</g>
	</g>
</g>
<g id="Shape_3_1_" enable-background="new    ">
	<g id="Shape_3">
		<g>
			<polygon fill="#8CC63E" points="3508,688.6 3311.6,460.3 2875.7,685.4 2714,441.9 2468.2,689.2 2229,455 1816.5,690.7 
				1474.4,339.2 1150,683.4 977.6,543.8 804.2,604.3 591,408.2 424.6,601.7 108.2,455.5 0,517.4 0,692 3508,692 			"/>
		</g>
	</g>
</g>
</svg>
